<?xml version="1.0" standalone="no"?>
<!DOCTYPE svg PUBLIC "-//W3C//DTD SVG 20010904//EN"
 "http://www.w3.org/TR/2001/REC-SVG-20010904/DTD/svg10.dtd">
<svg version="1.0" xmlns="http://www.w3.org/2000/svg"
 width="1080.000000pt" height="1080.000000pt" viewBox="0 0 1080.000000 1080.000000"
 preserveAspectRatio="xMidYMid meet">

<g transform="translate(0.000000,1080.000000) scale(0.100000,-0.100000)"
fill="#000000" stroke="none">
<path d="M5255 9101 c-33 -15 -73 -41 -90 -57 -44 -43 -379 -451 -427 -520
-239 -342 -318 -513 -318 -689 0 -69 25 -212 50 -283 11 -31 20 -64 20 -72 0
-10 -29 -31 -77 -55 -43 -21 -85 -43 -93 -49 -8 -7 -42 -23 -75 -36 -91 -35
-194 -89 -239 -123 -171 -131 -273 -278 -397 -572 l-64 -150 -5 58 c-6 61 -24
87 -62 87 -37 0 -55 -34 -68 -126 -6 -49 -15 -102 -20 -119 -38 -128 -53 -686
-25 -900 20 -149 76 -373 127 -500 41 -103 180 -387 226 -463 176 -286 314
-465 507 -657 179 -179 327 -299 495 -399 129 -77 129 -75 23 -76 -115 0 -123
-8 -123 -123 0 -69 3 -81 25 -102 13 -14 36 -25 50 -25 25 0 25 -1 25 -78 l0
-78 -32 -9 c-56 -17 -68 -54 -61 -175 7 -115 20 -140 73 -140 30 0 30 -1 30
-55 0 -48 -3 -55 -19 -55 -11 0 -26 -3 -35 -6 -10 -4 -20 5 -30 31 -9 20 -25
44 -37 54 -22 18 -22 19 -6 60 22 53 21 84 -3 244 -26 172 -24 165 -60 220
-52 78 -52 78 -462 22 -194 -27 -368 -54 -386 -61 -26 -10 -38 -26 -59 -71
-23 -53 -25 -65 -19 -149 8 -112 20 -151 56 -172 l27 -17 -22 -46 -21 -46 -16
23 c-10 12 -34 26 -55 31 -36 8 -38 11 -53 73 l-16 65 28 27 c30 28 35 62 19
114 -5 16 -12 41 -15 57 -10 41 -40 67 -81 67 -35 0 -513 -123 -546 -140 -9
-5 -22 -24 -29 -42 -16 -43 -65 -162 -134 -324 -31 -72 -59 -146 -63 -164 l-6
-33 -13 25 c-7 14 -38 87 -69 164 -73 178 -126 294 -135 294 -4 0 -27 13 -51
30 -31 21 -56 30 -84 30 -30 0 -183 -60 -595 -234 -614 -259 -577 -237 -600
-348 -17 -77 -48 11 255 -722 63 -154 123 -288 133 -299 42 -48 159 -76 233
-57 24 6 282 111 573 233 455 191 530 226 542 249 22 42 17 69 -27 171 -30 70
-47 97 -66 106 -23 10 -25 16 -19 49 3 20 6 56 6 80 0 40 1 42 31 42 17 0 105
20 197 44 217 57 222 58 222 46 0 -5 -7 -10 -15 -10 -16 0 -45 -49 -45 -77 0
-10 11 -56 25 -103 26 -93 48 -120 98 -120 36 0 411 97 449 116 15 8 47 14 72
14 65 0 822 107 845 120 12 6 119 10 281 10 351 0 350 0 350 163 0 134 -19
177 -79 177 -18 0 -21 6 -21 50 l0 50 74 0 74 0 7 -134 c6 -123 9 -138 37
-186 24 -43 39 -56 86 -78 55 -26 64 -27 242 -28 145 -1 238 -8 430 -33 135
-18 256 -30 270 -27 14 3 43 -1 65 -9 41 -15 434 -65 506 -65 22 0 49 -4 59
-10 10 -5 101 -33 202 -61 100 -28 206 -57 233 -65 116 -32 146 -15 180 106
34 117 33 155 -5 190 -32 30 -36 44 -21 83 l10 25 67 -17 c37 -9 69 -22 71
-28 2 -6 -8 -56 -22 -111 -32 -127 -32 -179 -1 -240 42 -82 70 -101 218 -143
222 -64 232 -60 277 104 29 106 28 133 -9 167 -35 32 -36 45 -14 131 10 40 14
80 10 109 -5 37 -2 52 12 71 26 33 44 68 53 104 4 16 17 66 29 110 46 167 47
184 15 259 -16 37 -37 72 -48 78 -33 17 -900 248 -933 248 -60 0 -88 -44 -101
-158 -5 -39 -2 -45 30 -75 33 -30 35 -34 27 -72 -21 -96 -21 -95 -51 -95 -64
0 -86 -24 -109 -120 -6 -25 -15 -62 -22 -82 -14 -46 2 -90 38 -106 26 -12 30
-35 14 -76 -8 -22 -16 -26 -47 -26 -54 0 -123 30 -123 54 0 18 21 201 55 471
23 182 21 218 -16 282 -21 37 -42 59 -63 68 -45 18 -780 108 -817 100 -29 -7
-93 -66 -115 -108 -7 -12 -20 -82 -29 -155 l-18 -132 -29 0 c-52 0 -72 -33
-87 -143 -15 -119 -7 -150 45 -169 32 -11 33 -13 28 -52 -4 -23 -10 -44 -13
-48 -9 -10 -98 -12 -138 -3 l-31 7 -4 126 c-4 135 -18 182 -67 226 -28 25 -27
40 8 111 16 33 34 72 40 87 7 20 21 30 50 38 52 14 61 32 61 122 0 86 -10 105
-63 115 l-39 8 79 47 c73 45 157 105 285 204 29 23 98 86 153 139 l100 97 69
-5 c68 -4 71 -6 115 -53 63 -67 324 -356 389 -431 175 -200 482 -166 600 66
34 69 37 82 37 160 0 114 -28 175 -125 273 -38 40 -70 76 -70 80 0 5 -77 93
-172 196 -94 103 -180 197 -191 209 -18 21 -19 28 -9 75 7 29 23 108 38 176
14 68 43 178 64 245 161 509 205 731 205 1027 0 164 -15 284 -61 495 -39 176
-46 193 -77 204 -35 13 -58 1 -77 -40 l-17 -39 -31 103 c-37 123 -155 397
-179 415 -9 6 -25 12 -35 12 -9 0 -40 27 -67 60 -76 91 -142 145 -228 185 -43
20 -103 49 -133 65 -30 15 -66 31 -80 35 -14 4 -38 17 -53 28 -33 22 -33 15 7
172 34 130 42 231 26 325 -20 121 -72 220 -252 476 -100 143 -143 201 -293
399 -196 257 -181 242 -257 279 -61 31 -80 36 -142 36 -57 0 -83 -5 -131 -29z
m-161 -1374 c95 -16 109 -24 137 -78 l19 -38 -28 15 c-15 7 -47 14 -70 14 -59
0 -99 21 -158 81 -45 47 -46 50 -17 35 17 -9 70 -22 117 -29z m666 -3 c-57
-58 -107 -84 -162 -84 -24 0 -55 -7 -70 -14 -35 -18 -35 -11 -3 36 32 47 45
54 120 63 33 4 80 15 105 25 25 10 47 18 50 19 2 1 -16 -20 -40 -45z m-838
-1311 c83 -83 87 -89 59 -85 -46 6 -94 -5 -136 -33 l-36 -25 -43 35 c-47 39
-80 44 -126 20 -35 -18 -39 -25 -8 -17 19 5 21 2 16 -24 -3 -16 -19 -102 -34
-191 -16 -90 -32 -163 -36 -163 -4 0 -12 9 -18 20 -14 26 23 385 45 446 28 74
100 118 184 110 40 -3 52 -12 133 -93z m-42 -278 l150 -170 0 -50 0 -50 -24
25 c-13 14 -87 96 -165 184 -119 134 -141 164 -141 191 0 32 8 48 22 43 4 -2
75 -79 158 -173z m237 63 l94 -93 -56 -6 c-57 -7 -99 -33 -114 -71 -5 -14 -28
7 -104 98 -92 108 -97 117 -80 130 26 20 71 32 122 33 42 1 47 -2 138 -91z
m372 -331 c450 -469 544 -569 526 -564 -52 15 -89 12 -100 -9 -9 -18 -42 15
-335 334 -179 194 -332 363 -340 374 -14 21 -14 21 49 14 l64 -7 136 -142z
m-287 104 c13 -16 119 -133 236 -261 141 -154 212 -239 208 -249 -2 -9 -17
-45 -32 -81 -19 -45 -29 -91 -33 -149 l-6 -84 -204 249 c-113 137 -211 256
-218 266 -11 12 -12 27 -6 59 l8 42 98 -110 c53 -61 97 -114 97 -117 0 -12
204 -246 209 -240 3 3 13 31 22 62 9 31 23 72 30 90 l13 32 -89 90 c-49 50
-95 90 -102 90 -6 0 -22 -14 -36 -31 l-24 -31 -136 161 c-76 88 -137 164 -137
168 0 5 9 23 20 41 24 40 51 41 82 3z m-218 -240 c19 -20 14 -41 -8 -41 -7 0
-21 -8 -30 -19 -9 -10 -34 -21 -56 -25 -21 -3 -51 -17 -67 -30 -15 -12 -45
-31 -66 -41 -20 -9 -45 -30 -54 -45 -12 -21 -26 -29 -52 -32 -20 -3 -44 -8
-54 -13 -16 -7 -17 -4 -12 21 11 48 38 76 87 91 27 8 52 23 62 37 31 48 151
114 207 115 14 1 34 -8 43 -18z m69 -113 c9 -8 20 -38 26 -74 5 -33 19 -76 30
-95 27 -44 26 -61 -5 -98 -49 -58 -73 -35 -85 80 -6 63 -14 90 -34 119 -35 50
-28 80 19 80 18 0 40 -6 49 -12z m204 -142 l99 -119 -19 -100 -19 -99 34 -36
33 -35 -40 28 c-22 16 -43 32 -48 35 -6 6 -2 38 18 137 4 16 -14 44 -70 110
-60 70 -75 93 -71 113 2 15 -4 39 -17 59 -38 63 1 26 100 -93z m-330 72 c4 -7
13 -40 19 -73 7 -33 19 -78 27 -100 18 -47 9 -77 -27 -89 -43 -16 -60 10 -66
102 -5 58 -12 85 -28 108 -31 41 -21 64 28 64 22 0 42 -6 47 -12z m-134 -59
c30 -16 37 -28 37 -65 0 -17 7 -51 16 -76 8 -26 14 -64 12 -85 -3 -34 -6 -38
-34 -41 -50 -5 -67 20 -59 85 6 47 3 59 -19 98 -26 43 -33 75 -19 88 10 11 42
8 66 -4z m-89 -131 c3 -13 6 -32 6 -42 0 -11 12 -48 26 -84 30 -74 26 -108
-13 -123 -19 -7 -31 -6 -49 6 -21 14 -24 23 -24 81 0 45 -6 77 -20 104 -25 48
-26 86 -3 99 24 13 69 -11 77 -41z m1147 -128 c79 -91 208 -236 287 -323 93
-103 141 -164 138 -174 -3 -8 -6 -28 -6 -45 0 -30 -1 -30 -18 -15 -10 10 -24
17 -30 17 -7 0 -18 15 -25 33 -18 41 -49 69 -81 71 -20 1 -25 7 -30 38 -8 51
-41 80 -86 76 -33 -3 -39 3 -182 171 -109 129 -148 182 -148 201 0 25 29 125
35 118 1 -2 67 -77 146 -168z m-611 19 c0 -5 -11 -16 -24 -24 -21 -14 -28 -14
-58 -2 -56 24 -63 40 -31 74 l28 28 43 -34 c23 -18 42 -37 42 -42z m223 -11
c56 -65 74 -93 70 -108 -3 -11 -6 -20 -8 -20 -1 0 -34 36 -74 80 -56 64 -71
88 -71 112 0 17 2 29 4 27 2 -2 37 -43 79 -91z m-383 -35 c16 -12 18 -18 10
-29 -10 -11 -24 -7 -83 24 -64 33 -69 37 -44 40 15 2 33 12 39 22 11 17 13 17
34 -12 13 -17 32 -37 44 -45z m-77 -66 c-9 -14 -153 7 -153 23 0 4 9 10 21 13
11 3 23 15 26 26 5 18 8 17 58 -17 30 -19 51 -40 48 -45z m1237 -128 l141
-148 -28 -31 -28 -31 -130 143 c-71 78 -149 163 -171 188 l-42 46 59 -10 59
-10 140 -147z m-1362 108 c43 -11 55 -30 26 -41 -9 -3 -44 -6 -79 -6 l-62 0
16 35 c13 28 20 34 36 29 11 -3 39 -11 63 -17z m489 -70 c59 -45 61 -49 67
-99 3 -29 6 -81 5 -114 l0 -62 83 -11 c146 -20 158 -23 158 -32 0 -5 -6 -9
-12 -9 -31 1 -239 28 -243 31 -1 2 -20 33 -40 69 -20 36 -57 83 -82 106 l-45
41 12 72 c8 51 15 69 23 63 7 -5 40 -30 74 -55z m404 -134 c13 -16 12 -17 -3
-4 -10 7 -18 15 -18 17 0 8 8 3 21 -13z m-408 -127 l44 -78 -14 -77 c-7 -42
-25 -170 -39 -286 -13 -115 -26 -214 -28 -220 -1 -5 -35 22 -75 60 l-73 71 42
289 c56 395 47 358 75 337 13 -9 43 -52 68 -96z m1131 73 c53 -42 20 -141 -66
-196 -55 -36 -68 -39 -86 -21 -25 25 -13 65 42 132 30 36 58 75 61 86 8 25 16
25 49 -1z m-669 -9 c10 -11 16 -20 13 -20 -3 0 -13 9 -23 20 -10 11 -16 20
-13 20 3 0 13 -9 23 -20z m203 -46 c6 -67 -16 -141 -53 -178 -39 -40 -70 -50
-90 -29 -26 26 -18 60 25 99 21 20 44 53 51 73 27 86 61 104 67 35z m-148 -19
c13 -14 21 -25 18 -25 -2 0 -15 11 -28 25 -13 14 -21 25 -18 25 2 0 15 -11 28
-25z m258 -80 c19 -41 15 -55 -41 -150 -40 -68 -59 -91 -77 -93 -48 -7 -69 68
-29 104 12 10 32 44 46 74 40 91 78 116 101 65z m482 -95 c40 -45 70 -83 68
-85 -2 -3 -32 0 -66 6 -54 10 -67 16 -97 52 l-34 40 27 33 c15 18 27 33 28 33
1 1 34 -35 74 -79z m-395 -1 c4 -11 -1 -75 -11 -144 -16 -118 -19 -125 -40
-125 -13 0 -35 11 -50 24 l-28 23 22 51 c12 28 22 66 22 86 0 87 64 151 85 85z
m158 -36 c50 4 53 3 83 -32 l32 -36 -41 -45 c-55 -62 -69 -100 -76 -204 l-6
-88 -62 77 c-35 42 -60 82 -56 88 4 6 20 -5 40 -28 l33 -38 0 29 c0 16 7 56
14 88 l14 60 -33 39 c-26 30 -34 49 -37 87 l-3 48 23 -25 c21 -23 29 -25 75
-20z m265 -114 c19 -6 102 -87 228 -221 110 -115 270 -285 356 -376 167 -178
180 -199 159 -265 -19 -57 -90 -107 -153 -107 -43 0 -96 33 -109 68 -14 34 -6
98 15 121 22 24 20 38 -2 18 -20 -18 18 -55 -456 450 -104 111 -193 200 -198
197 -4 -3 -8 8 -8 24 0 71 88 119 168 91z m-1508 -1124 c33 -13 26 -14 -95
-16 -71 -1 -179 -5 -240 -9 -93 -6 -73 -7 127 -8 157 -1 239 2 243 9 13 21 27
2 30 -41 5 -56 -7 -70 -56 -70 l-39 0 0 -112 c0 -157 1 -158 64 -158 38 0 54
5 62 18 6 9 31 27 56 40 25 12 48 30 52 40 3 9 9 24 14 32 20 32 29 80 23 112
-6 30 -10 33 -49 36 -26 2 -45 9 -49 18 -8 21 6 66 20 61 6 -2 32 2 56 10 30
9 105 13 232 13 131 0 190 3 195 11 5 9 -38 10 -172 6 -159 -6 -176 -5 -149 8
22 10 73 14 188 15 l159 0 -3 -32 c-1 -18 1 -43 5 -56 11 -34 -9 -52 -61 -52
-34 0 -44 -3 -40 -14 3 -7 -1 -26 -9 -41 -8 -15 -14 -35 -14 -45 0 -10 -7 -25
-15 -34 -8 -8 -15 -22 -15 -31 0 -9 -11 -27 -24 -40 -44 -44 -42 -60 13 -113
27 -26 54 -59 59 -73 5 -13 13 -88 17 -166 l7 -143 44 0 c53 0 56 -8 52 -130
l-3 -85 -140 -3 c-136 -2 -142 -2 -195 25 -85 44 -94 67 -98 251 l-4 152 -134
0 -135 0 3 -107 3 -108 36 -1 c20 -1 41 -4 48 -8 7 -5 11 -43 11 -106 0 -80
-3 -99 -16 -104 -9 -3 -127 -6 -264 -6 l-248 0 -4 68 c-2 37 -1 85 2 107 5 39
6 40 50 45 35 4 45 9 44 23 0 9 -1 55 -2 102 l-2 85 -39 0 c-55 0 -62 14 -59
117 l3 88 48 3 48 3 -3 137 -3 137 -47 3 -46 3 -4 53 c-5 92 -18 85 175 89 95
1 190 3 212 4 22 1 56 -5 75 -12z m1450 -61 c380 -48 407 -55 396 -97 -3 -13
1 -21 14 -24 35 -9 37 20 -25 -488 -18 -148 -31 -273 -29 -277 2 -3 22 -9 45
-13 22 -4 42 -12 44 -18 5 -14 -19 -194 -27 -202 -6 -6 -497 53 -511 62 -9 5
-3 120 10 185 5 26 9 28 53 28 l48 0 12 100 c7 56 11 102 9 104 -9 8 -255 34
-260 28 -3 -4 -11 -50 -17 -102 -13 -103 -10 -110 41 -110 16 0 30 -7 34 -16
8 -23 -12 -183 -26 -197 -13 -13 -497 45 -513 61 -12 12 9 180 24 200 6 7 28
11 51 10 41 -3 41 -3 48 37 4 22 10 68 14 102 l7 61 -44 9 -43 9 3 77 c1 43 7
89 12 103 9 23 13 25 54 19 l44 -7 12 89 c33 235 34 237 58 248 12 5 22 17 22
27 0 19 26 37 55 38 10 0 184 -21 385 -46z m-1271 -119 c9 -10 -13 -60 -37
-84 -23 -22 -71 -53 -105 -69 -4 -2 -7 31 -5 74 3 74 4 79 28 85 23 7 110 2
119 -6z m-858 -5 c10 -6 19 -17 19 -24 0 -8 8 -20 18 -27 15 -11 24 -48 42
-169 13 -85 23 -164 23 -176 -1 -40 -34 -94 -61 -101 -15 -3 -33 -15 -42 -25
-12 -15 -56 -24 -223 -47 -115 -16 -211 -32 -214 -35 -6 -5 14 -156 21 -164 3
-2 63 4 135 14 l131 17 -6 62 c-8 74 -20 67 149 91 80 11 122 13 129 6 12 -12
54 -299 45 -309 -18 -18 -857 -124 -857 -109 0 2 -11 85 -25 185 -35 248 -35
267 -3 317 14 22 42 48 60 57 19 9 125 28 236 43 111 16 207 31 213 35 8 5 8
31 -1 95 -6 49 -13 91 -16 93 -5 5 -253 -27 -264 -34 -4 -2 -3 -32 2 -66 6
-34 6 -65 1 -70 -5 -5 -68 -16 -141 -26 -154 -20 -147 -23 -157 76 -3 36 -9
75 -11 87 -3 12 1 28 10 37 9 8 16 24 16 35 0 11 7 26 16 33 10 9 144 32 343
61 357 50 383 53 412 38z m3364 -116 c449 -121 478 -131 455 -174 -8 -15 -6
-20 10 -25 23 -7 25 -30 9 -90 -16 -60 -26 -102 -45 -182 -13 -55 -25 -80 -51
-107 -20 -20 -39 -36 -44 -36 -13 0 -11 -21 6 -54 21 -40 19 -77 -10 -184 -14
-51 -23 -96 -21 -101 3 -5 22 -12 41 -15 43 -8 44 -19 14 -133 -26 -99 -20
-98 -189 -51 -102 28 -120 36 -156 72 -68 67 -71 95 -25 270 27 102 36 148 28
151 -42 14 -250 66 -252 63 -8 -8 -52 -199 -46 -202 3 -2 20 -7 38 -10 17 -4
34 -13 36 -21 8 -18 -38 -186 -53 -195 -7 -4 -27 -4 -44 1 -199 52 -416 112
-433 119 -28 12 -29 30 -4 120 26 94 26 93 80 86 l47 -6 25 92 c13 51 24 97
24 102 0 5 -18 14 -40 20 -22 7 -41 18 -42 26 -2 8 8 51 20 95 l23 80 50 -2
50 -2 32 119 c18 65 32 123 32 129 0 6 -18 15 -39 21 -46 12 -54 28 -35 65 8
15 12 30 10 34 -2 3 0 17 5 30 8 19 14 22 37 17 15 -4 221 -59 457 -122z
m-4344 -35 c16 -32 31 -99 26 -113 -4 -9 -20 -19 -37 -23 -29 -5 -30 -8 -25
-37 4 -17 11 -44 16 -61 5 -16 17 -59 27 -95 l18 -65 42 3 41 3 16 -58 c9 -32
18 -63 20 -70 6 -17 -22 -43 -45 -43 -28 0 -29 -9 -11 -75 l16 -60 41 3 41 3
22 -81 c13 -45 20 -87 18 -94 -3 -7 -25 -18 -49 -24 -23 -7 -118 -32 -211 -56
-140 -37 -169 -42 -181 -31 -16 16 -50 151 -42 171 3 8 13 14 23 14 42 1 48
14 33 75 -8 31 -19 59 -25 61 -6 3 -112 -22 -235 -55 -177 -48 -227 -58 -237
-48 -6 6 -18 38 -26 70 -14 52 -14 63 -1 95 30 73 45 107 59 135 8 16 15 33
15 39 0 5 6 24 14 41 7 18 19 47 26 65 7 17 16 32 21 32 5 0 9 10 9 23 0 12 8
33 17 47 9 13 17 34 18 47 0 12 6 28 13 35 13 13 498 148 516 144 5 -1 13 -9
17 -17z m707 -109 c2 -18 0 -36 -5 -40 -4 -4 -38 -11 -75 -15 l-67 -6 -7 36
c-3 20 -5 38 -2 40 5 5 130 23 143 20 6 -1 11 -16 13 -35z m-1818 -50 c0 -5 0
-13 0 -17 -1 -5 14 -10 31 -13 32 -5 35 -8 62 -70 9 -19 27 -61 41 -93 14 -32
26 -62 26 -66 0 -5 6 -22 14 -38 8 -15 19 -39 24 -53 6 -14 40 -95 76 -180 43
-101 66 -168 66 -193 0 -47 -23 -99 -60 -134 -42 -39 -649 -293 -700 -293 -48
0 -98 19 -122 47 -10 10 -56 112 -103 226 -86 209 -103 280 -72 305 25 21 471
203 491 200 15 -2 36 -43 99 -193 54 -129 76 -194 70 -204 -5 -7 -58 -34 -117
-58 -89 -37 -111 -42 -121 -31 -6 7 -33 67 -60 133 -26 66 -51 124 -55 128 -9
10 -50 0 -50 -12 0 -20 133 -321 142 -321 25 0 328 135 328 146 0 10 -112 290
-180 449 -5 11 -18 41 -29 68 -11 26 -24 47 -28 47 -9 0 -623 -256 -629 -263
-2 -2 52 -138 121 -303 69 -164 142 -338 162 -386 34 -81 38 -86 60 -77 13 5
216 90 451 189 236 99 434 180 441 180 7 0 26 -30 43 -67 43 -94 49 -120 33
-133 -7 -5 -248 -110 -536 -231 -567 -239 -594 -247 -665 -211 -21 11 -46 28
-56 38 -14 17 -67 139 -214 499 -25 61 -49 119 -54 130 -4 11 -27 67 -50 125
-24 58 -48 118 -56 135 -13 29 -4 65 16 65 5 0 5 11 -2 25 -10 22 -9 29 8 45
28 27 1083 469 1122 470 17 0 32 -4 32 -10z m4191 -248 c3 -4 4 -26 2 -48 -5
-40 -6 -42 -45 -47 -24 -3 -53 0 -74 9 -30 13 -34 18 -34 52 0 21 3 42 8 46 8
9 134 -2 143 -12z m-2317 -84 c3 -13 2 -26 -2 -29 -4 -4 -39 -11 -79 -16 l-71
-9 -4 28 c-5 30 -2 31 62 41 67 11 88 7 94 -15z m-564 -108 c0 -15 -7 -20 -25
-20 -27 0 -32 9 -13 28 18 18 38 14 38 -8z m-2021 -43 c-28 -21 -59 -36 -59
-29 0 9 37 30 54 31 5 1 7 0 5 -2z"/>
<path d="M4720 6247 c0 -7 17 -30 39 -51 49 -48 64 -31 21 24 -31 39 -60 52
-60 27z"/>
<path d="M4820 6138 c1 -7 16 -31 35 -53 26 -30 37 -37 46 -28 9 9 3 21 -22
52 -34 40 -59 53 -59 29z"/>
<path d="M4920 6027 c0 -8 15 -31 34 -53 28 -31 37 -37 47 -26 11 10 6 20 -26
52 -41 42 -55 49 -55 27z"/>
<path d="M7214 3711 c-44 -27 -64 -59 -64 -104 0 -55 35 -87 96 -87 41 0 51 5
85 39 51 50 54 98 10 142 -35 35 -81 38 -127 10z"/>
<path d="M5453 3253 c-98 -3 -143 -7 -143 -15 0 -8 40 -9 143 -5 78 4 186 7
240 7 58 0 97 4 97 10 0 6 -38 9 -97 8 -54 -1 -162 -4 -240 -5z"/>
<path d="M4845 3240 c-82 -3 -145 -7 -140 -10 18 -10 475 1 475 11 0 9 -67 9
-335 -1z"/>
<path d="M5468 3183 c-32 -2 -58 -8 -58 -13 0 -6 56 -10 134 -10 110 0 135 3
140 15 4 13 -7 15 -77 13 -45 -1 -108 -3 -139 -5z"/>
<path d="M4807 3174 c-15 -15 8 -24 62 -24 92 0 211 12 211 21 0 10 -263 12
-273 3z"/>
<path d="M5458 3113 c-32 -2 -58 -8 -58 -13 0 -6 55 -10 130 -10 109 0 130 2
130 15 0 15 -49 17 -202 8z"/>
<path d="M4810 3095 c0 -13 18 -15 135 -13 82 2 135 7 135 13 0 6 -53 11 -135
13 -117 2 -135 0 -135 -13z"/>
<path d="M5431 3041 c-34 -4 -56 -11 -59 -20 -3 -10 0 -12 12 -8 10 4 66 7
126 7 87 0 109 3 114 15 4 13 -6 15 -67 13 -40 -1 -96 -4 -126 -7z"/>
<path d="M4810 3025 c0 -13 21 -15 141 -15 108 0 140 3 137 13 -3 9 -43 13
-141 15 -117 2 -137 0 -137 -13z"/>
<path d="M5415 2971 c-60 -3 -119 -11 -130 -18 -16 -10 7 -12 127 -13 137 0
148 1 158 20 10 18 8 20 -17 18 -15 -1 -77 -4 -138 -7z"/>
<path d="M4810 2949 c0 -20 4 -21 46 -15 26 3 89 6 140 6 77 0 94 3 94 15 0
13 -22 15 -140 15 -136 0 -140 -1 -140 -21z"/>
<path d="M5155 2899 c-485 -8 -445 -5 -445 -26 0 -15 25 -16 308 -10 169 4
377 7 462 7 l155 0 -25 20 c-14 11 -32 19 -40 18 -8 -1 -195 -5 -415 -9z"/>
<path d="M5115 2830 c-437 -9 -405 -7 -405 -25 0 -13 32 -15 228 -15 126 0
344 3 486 7 227 5 256 8 254 22 -4 20 -51 20 -563 11z"/>
<path d="M5113 2760 c-216 -3 -395 -9 -399 -13 -4 -4 16 -7 44 -7 41 0 52 -3
52 -16 0 -12 6 -15 23 -10 12 3 75 6 140 6 97 0 117 3 117 15 0 13 25 15 165
15 133 0 165 -3 165 -14 0 -11 25 -13 138 -8 75 2 139 6 141 8 2 2 1 10 -2 19
-5 12 -24 15 -99 13 -51 -1 -269 -4 -485 -8z"/>
<path d="M5478 2693 c-50 -3 -58 -7 -58 -24 0 -19 6 -19 138 -17 134 3 137 4
140 26 3 21 1 22 -80 20 -46 -1 -109 -3 -140 -5z"/>
<path d="M4868 2683 c-50 -3 -58 -7 -58 -23 0 -18 7 -20 58 -20 31 0 94 3 140
7 71 5 82 8 82 24 0 17 -8 19 -82 17 -46 -1 -109 -3 -140 -5z"/>
<path d="M5478 2623 c-50 -3 -58 -7 -58 -23 0 -19 8 -20 140 -20 l140 0 0 25
c0 25 -1 25 -82 23 -46 -1 -109 -3 -140 -5z"/>
<path d="M4868 2613 c-50 -3 -58 -7 -58 -23 0 -19 8 -20 140 -20 l140 0 0 25
c0 25 -1 25 -82 23 -46 -1 -109 -3 -140 -5z"/>
<path d="M5477 2553 c-53 -4 -58 -6 -55 -26 2 -12 9 -22 16 -21 6 1 68 2 137
3 l125 1 0 25 c0 25 -1 25 -82 23 -46 -1 -109 -3 -141 -5z"/>
<path d="M4867 2543 c-53 -4 -58 -6 -55 -26 2 -14 10 -22 21 -21 9 0 71 1 137
2 l120 2 0 25 c0 25 -1 25 -82 23 -46 -1 -109 -3 -141 -5z"/>
<path d="M5478 2483 c-54 -4 -58 -6 -58 -28 0 -24 2 -25 78 -25 42 0 128 3
190 7 104 6 113 8 110 26 -3 17 -13 19 -133 22 -71 1 -156 0 -187 -2z"/>
<path d="M4820 2471 c-96 -6 -105 -8 -105 -26 0 -17 8 -20 55 -23 30 -2 137
-1 238 3 l182 7 0 24 0 24 -132 -2 c-73 -1 -180 -4 -238 -7z"/>
<path d="M5502 2411 l-73 -6 16 -22 c16 -22 21 -23 186 -23 l169 0 0 30 0 30
-112 -2 c-62 -1 -146 -4 -186 -7z"/>
<path d="M4813 2403 c-91 -4 -93 -4 -93 -28 l0 -25 235 0 235 0 0 30 0 30
-142 -2 c-79 -1 -185 -4 -235 -5z"/>
<path d="M5514 2335 c29 -22 286 -22 286 0 0 13 -23 15 -152 15 -137 -1 -151
-2 -134 -15z"/>
<path d="M4783 2333 c-49 -3 -63 -7 -63 -20 0 -13 7 -14 38 -9 20 3 126 6 235
6 168 0 197 2 197 15 0 13 -25 15 -172 13 -95 -1 -201 -3 -235 -5z"/>
<path d="M6191 3285 c5 -4 713 -95 745 -95 63 0 -38 16 -342 55 -331 43 -413
51 -403 40z"/>
<path d="M6130 3222 c0 -10 842 -116 862 -109 22 8 -22 15 -437 67 -436 55
-425 54 -425 42z"/>
<path d="M6120 3150 c0 -5 3 -10 7 -10 4 0 63 -7 131 -16 113 -15 145 -14 129
2 -6 6 -196 33 -239 34 -16 0 -28 -4 -28 -10z"/>
<path d="M6417 3103 c-4 -26 -9 -77 -12 -113 -3 -36 -8 -75 -11 -87 -3 -15 2
-23 13 -27 31 -8 243 -30 248 -25 8 9 37 239 32 253 -4 9 -40 17 -104 25 -54
7 -112 14 -129 17 -31 6 -31 5 -37 -43z m204 -31 c4 -4 2 -40 -4 -80 l-10 -73
-56 6 c-98 11 -94 8 -87 83 4 36 10 70 13 75 6 10 134 0 144 -11z"/>
<path d="M6110 3081 c0 -11 26 -17 152 -32 87 -10 140 -8 126 6 -5 6 -220 35
-255 35 -13 0 -23 -4 -23 -9z"/>
<path d="M6722 3079 c3 -9 37 -18 104 -26 54 -7 114 -14 132 -17 22 -3 32 -1
32 8 0 9 -32 17 -102 25 -57 7 -118 15 -137 18 -26 4 -33 3 -29 -8z"/>
<path d="M6102 3008 c5 -14 263 -47 275 -35 12 13 -3 17 -117 32 -140 18 -163
19 -158 3z"/>
<path d="M6710 3008 c0 -18 259 -53 274 -38 13 13 -2 17 -109 30 -49 5 -107
13 -127 16 -29 4 -38 2 -38 -8z"/>
<path d="M6090 2937 c0 -16 259 -50 274 -36 16 14 4 18 -109 34 -134 19 -165
19 -165 2z"/>
<path d="M6700 2937 c0 -16 10 -18 173 -38 54 -6 101 -9 104 -5 15 14 -17 24
-112 35 -55 7 -115 15 -132 18 -25 4 -33 2 -33 -10z"/>
<path d="M5983 2884 c-3 -8 -4 -16 -2 -18 5 -4 929 -116 957 -116 13 0 22 6
22 15 0 8 -4 15 -9 15 -14 0 -902 109 -934 115 -19 3 -30 0 -34 -11z"/>
<path d="M6690 2867 c0 -17 10 -20 143 -37 105 -13 137 -13 137 3 0 9 -31 17
-102 26 -57 6 -120 15 -140 18 -30 4 -38 2 -38 -10z"/>
<path d="M5974 2815 c-4 -9 -5 -18 -3 -20 2 -2 211 -29 464 -59 253 -31 472
-59 488 -62 22 -5 27 -2 27 15 0 12 -3 21 -6 21 -10 0 -887 110 -926 116 -30
4 -39 2 -44 -11z"/>
<path d="M5974 2751 c4 -6 25 -11 47 -11 27 0 39 -4 39 -14 0 -15 18 -20 168
-38 80 -9 105 -9 111 0 5 9 43 7 162 -8 84 -11 155 -20 157 -20 1 0 2 -7 2
-15 0 -8 6 -15 13 -15 7 0 67 -7 132 -15 66 -8 123 -15 128 -15 4 0 7 9 7 20
0 11 -3 20 -6 20 -10 0 -888 110 -928 116 -27 4 -36 3 -32 -5z"/>
<path d="M6053 2663 c-9 -23 7 -28 125 -42 59 -7 118 -15 130 -18 20 -5 23 -2
20 18 -3 22 -9 25 -103 36 -55 7 -115 14 -133 17 -24 4 -35 1 -39 -11z"/>
<path d="M6046 2593 c-4 -9 -3 -20 1 -23 4 -4 53 -13 108 -19 55 -7 114 -14
131 -17 26 -5 32 -2 37 15 6 25 3 26 -133 41 -52 6 -105 13 -116 15 -14 3 -24
-1 -28 -12z"/>
<path d="M6656 2584 c-4 -9 -5 -18 -4 -19 3 -3 247 -35 266 -35 16 0 16 40 0
40 -7 0 -60 7 -118 15 -134 18 -137 18 -144 -1z"/>
<path d="M6036 2518 c-3 -12 -4 -23 -3 -24 4 -4 269 -36 272 -32 2 1 5 12 7
23 3 18 -6 21 -92 32 -52 6 -114 14 -136 17 -37 5 -43 3 -48 -16z"/>
<path d="M6648 2512 c-6 -23 -3 -24 160 -43 88 -10 105 -10 113 2 5 8 9 17 9
20 0 4 -42 12 -92 18 -51 6 -114 14 -139 17 -40 5 -47 4 -51 -14z"/>
<path d="M5930 2455 c0 -14 4 -25 8 -25 13 0 392 -49 430 -55 29 -5 32 -4 32
18 0 31 -1 31 -221 57 -96 11 -191 22 -211 25 -35 5 -38 3 -38 -20z"/>
<path d="M6642 2439 c3 -23 9 -25 133 -40 130 -16 144 -14 145 17 0 7 -38 16
-92 23 -51 6 -115 14 -141 18 -47 6 -49 5 -45 -18z"/>
<path d="M5922 2383 l3 -28 215 -27 c271 -34 252 -34 248 -1 l-3 27 -210 28
c-269 35 -257 35 -253 1z"/>
<path d="M6530 2378 c0 -24 2 -24 230 -52 126 -15 234 -25 240 -21 18 11 11
34 -12 39 -38 8 -308 44 -385 51 -72 7 -73 7 -73 -17z"/>
<path d="M5910 2327 c0 -19 455 -76 472 -59 16 16 9 18 -230 47 -247 29 -242
29 -242 12z"/>
<path d="M6527 2323 c-12 -11 -8 -43 6 -43 6 0 111 -13 232 -29 121 -16 223
-27 228 -24 12 7 8 53 -5 53 -7 0 -103 11 -212 25 -214 27 -239 29 -249 18z"/>
<path d="M6520 2255 c0 -8 14 -16 33 -20 32 -5 422 -55 432 -55 3 0 5 7 5 15
0 8 -3 15 -7 15 -11 0 -407 50 -435 55 -20 3 -28 0 -28 -10z"/>
<path d="M4088 3089 c-329 -45 -387 -56 -360 -66 12 -5 702 86 711 94 24 19
-65 12 -351 -28z"/>
<path d="M4068 3016 c-202 -28 -370 -55 -374 -59 -4 -4 -5 -9 -2 -12 4 -4 672
83 775 101 38 7 34 25 -5 23 -15 -1 -192 -25 -394 -53z"/>
<path d="M4356 2986 c-46 -6 -81 -16 -84 -23 -5 -16 25 -16 121 -3 103 15 119
19 112 30 -7 12 -45 11 -149 -4z"/>
<path d="M3816 2911 c-66 -10 -111 -21 -114 -28 -4 -15 10 -16 103 -3 122 17
135 20 135 35 0 8 -3 14 -7 14 -5 -1 -57 -9 -117 -18z"/>
<path d="M4363 2916 c-88 -13 -96 -16 -85 -32 9 -14 232 16 235 31 3 14 -56
15 -150 1z"/>
<path d="M3818 2842 c-75 -11 -108 -19 -108 -29 0 -16 33 -16 150 1 67 9 85
15 88 29 2 9 -2 16 -10 16 -7 -1 -61 -9 -120 -17z"/>
<path d="M4368 2846 c-85 -13 -91 -16 -79 -34 6 -9 30 -9 112 3 57 8 107 15
112 15 4 0 7 7 7 15 0 18 -39 18 -152 1z"/>
<path d="M4181 2750 c-217 -31 -347 -54 -370 -66 -24 -12 -31 -19 -20 -21 13
-3 610 75 715 93 25 5 31 10 27 25 -3 10 -8 18 -12 18 -3 -1 -156 -23 -340
-49z"/>
<path d="M4110 2669 c-189 -27 -350 -51 -357 -53 -16 -7 -17 -36 -1 -36 47 0
745 103 755 112 22 18 15 28 -19 27 -18 -1 -188 -23 -378 -50z"/>
<path d="M3858 2563 c-94 -13 -108 -18 -108 -34 0 -22 22 -23 150 -5 76 10 85
14 88 34 2 13 -2 22 -10 21 -7 -1 -61 -8 -120 -16z"/>
<path d="M4528 2543 c6 -2 18 -2 25 0 6 3 1 5 -13 5 -14 0 -19 -2 -12 -5z"/>
<path d="M4463 2533 c9 -2 23 -2 30 0 6 3 -1 5 -18 5 -16 0 -22 -2 -12 -5z"/>
<path d="M4393 2523 c9 -2 23 -2 30 0 6 3 -1 5 -18 5 -16 0 -22 -2 -12 -5z"/>
<path d="M4338 2513 c6 -2 18 -2 25 0 6 3 1 5 -13 5 -14 0 -19 -2 -12 -5z"/>
<path d="M4443 2502 c-98 -13 -113 -17 -113 -34 0 -28 17 -30 128 -13 56 8
104 15 107 15 3 0 5 11 5 25 0 14 -3 24 -7 24 -5 -1 -59 -8 -120 -17z"/>
<path d="M3945 2505 c-5 -2 -49 -9 -97 -15 -84 -11 -88 -13 -88 -37 0 -18 4
-23 18 -19 9 2 63 10 120 17 95 11 103 14 100 33 -3 20 -29 30 -53 21z"/>
<path d="M4443 2432 c-68 -10 -103 -19 -103 -27 0 -14 -16 -18 -188 -41 -91
-12 -126 -13 -136 -5 -10 9 -39 8 -115 -4 -55 -8 -105 -15 -111 -15 -5 0 -10
-11 -10 -25 0 -14 6 -25 13 -25 6 0 188 25 402 55 215 30 391 55 391 55 1 0
-1 11 -4 25 -5 28 1 28 -139 7z"/>
<path d="M3955 2435 c-5 -2 -49 -9 -97 -15 -84 -12 -88 -13 -88 -37 0 -23 3
-24 38 -19 20 3 74 11 120 17 76 10 83 13 80 33 -3 20 -29 30 -53 21z"/>
<path d="M4170 2323 c-212 -30 -386 -56 -387 -57 -1 -1 0 -12 4 -24 3 -13 13
-22 25 -22 11 0 184 23 385 50 201 28 371 50 379 50 9 0 14 11 14 30 0 22 -4
30 -17 29 -10 -1 -191 -26 -403 -56z"/>
<path d="M4181 2255 c-211 -30 -386 -57 -389 -60 -23 -23 57 -17 398 31 212
29 391 53 398 54 6 0 12 7 12 15 0 19 27 22 -419 -40z"/>
<path d="M7356 3121 c13 -12 873 -243 887 -238 7 2 -8 10 -33 17 -229 62 -853
230 -858 230 -3 0 -2 -4 4 -9z"/>
<path d="M7340 3051 c0 -4 105 -36 233 -71 127 -34 338 -91 467 -125 210 -57
255 -67 238 -50 -4 5 -922 255 -933 255 -3 0 -5 -4 -5 -9z"/>
<path d="M7410 2960 c0 -14 256 -87 267 -76 11 11 -4 17 -131 52 -143 39 -136
37 -136 24z"/>
<path d="M7715 2898 c-5 -15 -42 -154 -55 -208 -5 -19 -6 -38 -2 -42 11 -10
243 -70 249 -64 3 3 12 29 20 58 8 29 19 69 24 88 22 76 28 105 24 108 -4 4
-162 49 -228 66 -18 4 -29 2 -32 -6z m120 -72 c50 -13 50 -13 48 -53 -1 -22
-8 -56 -16 -76 l-15 -35 -62 15 c-34 9 -64 23 -67 31 -5 13 12 104 24 125 6
10 31 9 88 -7z"/>
<path d="M7395 2890 c-8 -12 -9 -12 134 -50 99 -27 157 -33 139 -14 -6 5 -246
74 -260 74 -4 0 -10 -5 -13 -10z"/>
<path d="M7375 2820 c-8 -12 -9 -12 133 -50 124 -33 146 -36 140 -17 -3 6 -58
27 -124 44 -132 36 -140 37 -149 23z"/>
<path d="M8002 2798 c5 -13 256 -83 266 -74 10 11 -3 16 -129 51 -139 39 -142
40 -137 23z"/>
<path d="M7360 2752 c0 -13 29 -25 123 -50 134 -36 151 -38 145 -20 -5 13 -23
19 -180 62 -79 21 -88 22 -88 8z"/>
<path d="M7982 2728 c2 -6 60 -26 129 -44 140 -38 142 -38 137 -22 -4 11 -224
78 -256 78 -8 0 -12 -5 -10 -12z"/>
<path d="M7245 2709 c-4 -6 -5 -12 -3 -14 2 -3 205 -59 451 -125 405 -109 487
-127 487 -102 0 6 -903 253 -922 252 -4 0 -10 -5 -13 -11z"/>
<path d="M7962 2658 c2 -6 60 -26 129 -44 142 -39 139 -38 139 -21 0 8 -47 25
-124 45 -137 35 -149 37 -144 20z"/>
<path d="M7225 2643 c-3 -9 -4 -17 -2 -19 6 -6 899 -245 903 -241 2 2 -6 13
-19 24 -15 14 -124 48 -342 107 -176 47 -368 99 -427 115 -93 25 -107 27 -113
14z"/>
<path d="M7944 2598 c-10 -15 -1 -19 128 -54 141 -39 138 -39 138 -20 0 8 -18
18 -42 25 -24 6 -82 21 -130 35 -54 15 -90 20 -94 14z"/>
<path d="M7213 2583 c4 -6 23 -14 43 -18 23 -4 38 -13 41 -24 4 -14 36 -27
136 -53 73 -19 134 -31 135 -27 6 14 19 12 171 -28 98 -26 145 -43 148 -53 3
-11 44 -26 127 -48 144 -37 146 -37 139 -14 -3 14 -96 42 -461 142 -251 68
-463 126 -471 128 -8 3 -12 1 -8 -5z"/>
<path d="M7283 2475 c-3 -9 -4 -17 -2 -19 2 -2 63 -20 136 -39 114 -30 133
-33 138 -19 3 8 2 19 -2 23 -8 7 -233 69 -253 69 -6 0 -13 -7 -17 -15z"/>
<path d="M7264 2408 c-3 -11 -4 -21 -2 -22 1 -2 62 -19 133 -38 125 -34 130
-35 139 -17 5 11 7 21 5 23 -2 2 -63 20 -136 39 -128 34 -133 34 -139 15z"/>
<path d="M7247 2338 c-4 -12 -5 -23 -4 -24 3 -2 251 -66 262 -68 19 -2 17 42
-2 48 -10 2 -63 17 -118 31 -55 15 -107 28 -116 31 -11 3 -19 -3 -22 -18z"/>
<path d="M7874 2319 c-11 -18 6 -26 127 -58 136 -36 139 -37 139 -13 0 16 -21
25 -119 50 -132 36 -137 36 -147 21z"/>
<path d="M7132 2288 c3 -19 28 -28 225 -81 123 -33 225 -59 227 -56 2 2 6 13
8 23 3 20 -56 41 -312 106 -140 36 -152 37 -148 8z"/>
<path d="M7854 2248 c-3 -11 -4 -21 -2 -23 1 -1 62 -19 135 -38 130 -34 131
-34 137 -14 3 12 4 22 3 23 -1 2 -62 18 -134 38 -129 33 -132 34 -139 14z"/>
<path d="M7114 2225 c-3 -14 -5 -27 -3 -29 6 -4 434 -116 446 -116 9 0 26 40
20 47 -2 1 -97 27 -212 58 -116 31 -218 58 -227 61 -12 4 -19 -2 -24 -21z"/>
<path d="M7837 2178 c-4 -12 -5 -23 -4 -24 1 0 61 -17 132 -36 133 -36 140
-36 144 3 1 4 -52 21 -116 38 -65 18 -125 34 -134 37 -11 3 -19 -3 -22 -18z"/>
<path d="M7100 2168 c0 -8 82 -35 220 -72 120 -33 223 -58 227 -58 4 1 8 7 8
13 0 10 -408 129 -442 129 -7 0 -13 -6 -13 -12z"/>
<path d="M7817 2110 c-3 -11 -2 -22 1 -24 10 -6 340 -96 352 -96 6 0 10 10 10
23 0 19 -8 26 -42 34 -24 6 -101 27 -173 47 -71 20 -133 36 -136 36 -4 0 -9
-9 -12 -20z"/>
<path d="M7821 2030 c9 -23 20 -32 52 -40 23 -6 90 -24 149 -41 59 -16 114
-29 122 -29 11 0 31 39 23 46 -3 3 -340 94 -349 94 -4 0 -2 -13 3 -30z"/>
<path d="M7876 1960 c23 -24 261 -92 270 -78 3 5 3 12 0 15 -5 5 -273 83 -286
83 -2 0 5 -9 16 -20z"/>
<path d="M3275 2939 c-99 -26 -208 -55 -242 -64 -34 -9 -64 -23 -67 -30 -3 -9
35 -2 122 21 70 19 181 48 247 66 132 34 129 33 124 46 -2 5 -85 -13 -184 -39z"/>
<path d="M3206 2850 c-239 -64 -288 -81 -275 -95 11 -10 549 140 549 153 0 16
23 21 -274 -58z"/>
<path d="M3292 2800 c-57 -15 -105 -30 -107 -32 -2 -2 -1 -8 3 -14 10 -16 232
45 232 63 0 17 -7 16 -128 -17z"/>
<path d="M3025 2728 c-60 -16 -117 -36 -125 -44 -23 -22 3 -18 211 37 21 5 40
16 43 24 7 20 1 19 -129 -17z"/>
<path d="M3305 2731 c-67 -18 -100 -32 -100 -42 0 -17 -5 -18 128 16 69 18
107 33 107 42 0 18 -19 16 -135 -16z"/>
<path d="M3155 2695 c-18 -54 -28 -75 -36 -75 -5 0 -9 -9 -9 -20 0 -11 -9 -37
-20 -57 -25 -47 -26 -66 -2 -59 9 2 43 12 74 20 36 10 56 21 53 29 -2 6 -11
44 -20 82 -21 88 -31 108 -40 80z"/>
<path d="M3317 2662 c-75 -20 -97 -29 -94 -41 4 -19 -3 -20 130 15 59 16 106
33 104 39 -6 17 -39 15 -140 -13z"/>
<path d="M2988 2647 c-69 -18 -120 -37 -123 -46 -3 -7 -4 -15 -2 -17 5 -5 232
58 245 68 13 11 16 28 5 27 -5 0 -61 -15 -125 -32z"/>
<path d="M3357 2599 c-60 -15 -111 -30 -114 -33 -3 -3 -3 -12 0 -20 5 -12 24
-9 119 16 62 17 115 32 116 33 2 2 0 10 -5 18 -7 11 -25 9 -116 -14z"/>
<path d="M2957 2565 c-79 -20 -122 -37 -128 -48 -7 -12 -6 -17 3 -17 25 0 230
58 240 68 26 26 -6 25 -115 -3z"/>
<path d="M3162 2475 c-211 -56 -385 -104 -386 -106 -2 -2 -1 -11 3 -20 5 -14
57 -3 401 89 217 57 396 106 398 107 7 6 -11 35 -22 34 -6 0 -183 -47 -394
-104z"/>
<path d="M2907 2481 c-64 -17 -102 -33 -109 -45 -5 -9 -8 -19 -6 -21 6 -7 233
58 240 69 23 33 4 33 -125 -3z"/>
<path d="M3180 2408 c-206 -55 -379 -104 -384 -108 -4 -4 -4 -15 0 -23 8 -12
45 -4 239 47 127 34 303 82 393 105 136 37 162 47 162 62 0 12 -7 19 -17 18
-10 0 -187 -46 -393 -101z"/>
<path d="M3391 2391 c-94 -26 -108 -35 -93 -58 6 -10 23 -9 78 6 38 11 88 24
112 31 31 8 42 16 42 30 0 26 -20 25 -139 -9z"/>
<path d="M3423 2327 c-91 -24 -113 -34 -113 -48 0 -10 4 -20 8 -23 10 -6 218
46 229 57 3 4 2 15 -3 25 -9 18 -14 18 -121 -11z"/>
<path d="M3480 2268 c-142 -36 -150 -39 -150 -53 0 -8 -15 -17 -35 -21 -34 -6
-53 -20 -41 -31 3 -3 76 13 163 37 87 23 175 46 196 51 52 14 49 33 -5 25 -23
-4 -44 -3 -47 2 -3 5 -40 0 -81 -10z"/>
<path d="M3451 2189 c-102 -27 -186 -50 -187 -52 -7 -7 10 -47 20 -47 16 0
375 96 381 101 8 9 -7 49 -19 48 -6 0 -94 -23 -195 -50z"/>
<path d="M3460 2120 c-130 -35 -176 -51 -178 -64 -2 -9 -2 -16 0 -15 58 9 393
108 396 117 6 19 -29 13 -218 -38z"/>
<path d="M1795 2604 c-291 -123 -536 -226 -544 -229 -8 -3 -12 -8 -9 -11 6 -5
1078 443 1093 457 6 6 6 9 0 8 -6 0 -248 -101 -540 -225z"/>
<path d="M1820 2539 c-648 -273 -618 -260 -604 -266 10 -3 1149 471 1193 497
14 8 13 9 -4 9 -11 -1 -274 -108 -585 -240z"/>
<path d="M2308 2669 c-65 -28 -118 -56 -118 -61 0 -6 6 -8 13 -5 199 78 279
118 235 117 -7 0 -66 -24 -130 -51z"/>
<path d="M2335 2607 c-138 -58 -131 -55 -119 -66 12 -12 254 89 254 106 0 18
1 18 -135 -40z"/>
<path d="M2360 2540 c-107 -45 -146 -71 -103 -69 29 1 236 93 241 107 6 19
-16 13 -138 -38z"/>
<path d="M2393 2477 c-69 -28 -123 -57 -123 -64 0 -19 7 -17 131 34 125 51
138 58 124 72 -6 6 -58 -11 -132 -42z"/>
<path d="M2411 2409 c-63 -27 -116 -51 -117 -52 -2 -1 1 -8 5 -15 6 -10 38 -1
135 39 114 48 146 71 105 76 -8 1 -66 -21 -128 -48z"/>
<path d="M1896 2345 c-120 -50 -223 -99 -228 -109 -5 -9 -5 -16 0 -16 22 0
476 197 480 208 7 23 -35 9 -252 -83z"/>
<path d="M2443 2347 c-111 -47 -138 -66 -115 -81 6 -4 223 81 252 99 10 6 2
36 -9 34 -3 0 -61 -24 -128 -52z"/>
<path d="M2060 2339 c-52 -23 -96 -42 -98 -44 -1 -1 3 -7 10 -13 19 -15 209
64 201 84 -7 19 -4 19 -113 -27z"/>
<path d="M2468 2282 c-119 -52 -123 -55 -115 -76 5 -12 27 -6 119 33 62 26
121 50 130 54 22 8 13 37 -11 36 -9 0 -64 -21 -123 -47z"/>
<path d="M1360 2271 c-63 -27 -116 -54 -118 -61 -5 -15 -8 -16 146 47 61 26
112 51 112 55 0 15 -24 8 -140 -41z"/>
<path d="M2090 2274 c-41 -18 -79 -35 -84 -37 -5 -2 -7 -11 -3 -19 5 -15 19
-11 101 24 53 23 96 47 96 55 0 20 -28 14 -110 -23z"/>
<path d="M2535 2234 c-168 -74 -165 -72 -159 -88 9 -22 16 -21 144 33 85 36
115 54 115 67 0 27 -14 25 -100 -12z"/>
<path d="M1395 2209 c-122 -51 -143 -63 -128 -72 9 -5 241 87 256 102 25 25
-21 14 -128 -30z"/>
<path d="M1770 2216 c-113 -47 -106 -44 -93 -57 8 -8 36 -1 103 26 96 40 103
45 92 61 -4 7 -42 -5 -102 -30z"/>
<path d="M2118 2212 c-65 -28 -88 -42 -88 -56 0 -23 20 -19 124 29 44 20 76
40 74 47 -7 20 -20 17 -110 -20z"/>
<path d="M2530 2154 c-68 -29 -126 -56 -127 -61 -2 -4 1 -14 6 -21 6 -11 35
-2 135 39 69 28 126 57 126 63 -1 34 -19 31 -140 -20z"/>
<path d="M1410 2140 c-99 -42 -131 -63 -110 -72 12 -6 250 98 250 110 0 19
-16 14 -140 -38z"/>
<path d="M1795 2150 c-50 -21 -90 -44 -90 -51 0 -20 11 -18 108 21 63 25 87
40 87 53 0 22 1 22 -105 -23z"/>
<path d="M2148 2146 c-54 -22 -98 -43 -98 -46 0 -3 4 -11 9 -18 7 -11 26 -6
97 24 103 43 109 47 98 66 -8 12 -26 8 -106 -26z"/>
<path d="M2350 2004 c-173 -74 -359 -154 -414 -177 -54 -23 -98 -46 -98 -52 1
-35 44 -21 433 142 381 160 404 171 407 196 2 15 0 27 -5 26 -4 0 -150 -61
-323 -135z"/>
<path d="M1443 2077 c-68 -28 -123 -57 -123 -64 0 -20 16 -16 140 36 70 30
116 55 118 65 5 22 4 21 -135 -37z"/>
<path d="M1818 2083 c-65 -27 -88 -41 -88 -55 0 -10 2 -18 4 -18 2 0 46 18 97
39 56 23 95 45 97 55 5 23 -12 20 -110 -21z"/>
<path d="M2180 2084 c-97 -41 -103 -45 -95 -67 6 -13 20 -10 103 25 53 22 98
41 100 43 5 4 -10 35 -17 35 -3 -1 -44 -17 -91 -36z"/>
<path d="M1470 2013 c-69 -30 -126 -55 -127 -57 -1 -1 2 -7 6 -15 6 -10 37 -1
135 40 112 46 144 68 119 82 -5 2 -64 -20 -133 -50z"/>
<path d="M1843 2018 c-51 -22 -93 -44 -93 -49 0 -23 36 -18 120 17 66 27 89
41 85 51 -3 8 -5 17 -5 19 0 7 -14 2 -107 -38z"/>
<path d="M2275 1897 c-209 -88 -382 -162 -384 -164 -12 -9 16 -18 52 -17 30 0
124 35 332 123 160 68 306 132 326 143 32 18 82 80 62 77 -4 -1 -179 -73 -388
-162z"/>
<path d="M1493 1947 c-68 -29 -123 -54 -123 -57 0 -3 4 -11 8 -17 6 -10 40 0
133 39 68 28 125 53 127 53 5 4 -10 35 -17 35 -3 -1 -61 -24 -128 -53z"/>
<path d="M1868 1952 c-83 -35 -102 -52 -77 -67 8 -5 169 53 197 70 7 5 -12 35
-22 34 -6 0 -50 -17 -98 -37z"/>
<path d="M1518 1881 c-121 -53 -123 -54 -115 -75 5 -12 25 -7 114 30 59 25
118 50 130 55 26 10 21 40 -6 38 -9 0 -64 -22 -123 -48z"/>
<path d="M1900 1891 c-78 -35 -106 -60 -82 -75 6 -3 43 8 83 25 41 17 84 35
97 40 19 7 21 12 12 29 -6 11 -14 20 -18 19 -4 0 -45 -18 -92 -38z"/>
<path d="M2280 1739 c-245 -104 -452 -189 -460 -190 -8 0 -69 -24 -135 -53
-108 -47 -120 -55 -117 -76 1 -13 5 -26 7 -28 3 -3 270 107 595 243 441 186
589 252 585 263 -3 7 -5 18 -5 23 0 5 -6 9 -12 8 -7 -1 -213 -86 -458 -190z"/>
<path d="M1548 1818 c-90 -39 -118 -56 -118 -70 0 -10 5 -18 11 -18 6 0 64 23
130 51 86 37 119 56 117 67 -2 8 -7 16 -13 18 -5 1 -63 -20 -127 -48z"/>
<path d="M2173 1626 c-315 -133 -575 -245 -579 -248 -12 -12 44 -39 93 -45 48
-5 70 3 549 205 274 116 516 218 536 226 l37 16 -19 42 c-10 24 -25 44 -32 45
-7 1 -271 -108 -585 -241z m597 174 c-8 -5 -19 -10 -25 -10 -5 0 -3 5 5 10 8
5 20 10 25 10 6 0 3 -5 -5 -10z m-60 -25 c-14 -8 -29 -14 -35 -14 -5 0 1 6 15
14 14 8 30 14 35 14 6 0 -1 -6 -15 -14z m-60 -25 c-8 -5 -19 -10 -25 -10 -5 0
-3 5 5 10 8 5 20 10 25 10 6 0 3 -5 -5 -10z m-70 -30 c-8 -5 -19 -10 -25 -10
-5 0 -3 5 5 10 8 5 20 10 25 10 6 0 3 -5 -5 -10z m-60 -25 c-14 -8 -29 -14
-35 -14 -5 0 1 6 15 14 14 8 30 14 35 14 6 0 -1 -6 -15 -14z m-60 -25 c-8 -5
-19 -10 -25 -10 -5 0 -3 5 5 10 8 5 20 10 25 10 6 0 3 -5 -5 -10z m-70 -30
c-8 -5 -19 -10 -25 -10 -5 0 -3 5 5 10 8 5 20 10 25 10 6 0 3 -5 -5 -10z m-60
-25 c-14 -8 -29 -14 -35 -14 -5 0 1 6 15 14 14 8 30 14 35 14 6 0 -1 -6 -15
-14z m-60 -25 c-8 -5 -19 -10 -25 -10 -5 0 -3 5 5 10 8 5 20 10 25 10 6 0 3
-5 -5 -10z m-70 -30 c-8 -5 -19 -10 -25 -10 -5 0 -3 5 5 10 8 5 20 10 25 10 6
0 3 -5 -5 -10z m-50 -20 c-8 -5 -19 -10 -25 -10 -5 0 -3 5 5 10 8 5 20 10 25
10 6 0 3 -5 -5 -10z m-70 -30 c-8 -5 -19 -10 -25 -10 -5 0 -3 5 5 10 8 5 20
10 25 10 6 0 3 -5 -5 -10z m-70 -30 c-8 -5 -19 -10 -25 -10 -5 0 -3 5 5 10 8
5 20 10 25 10 6 0 3 -5 -5 -10z m-50 -20 c-8 -5 -19 -10 -25 -10 -5 0 -3 5 5
10 8 5 20 10 25 10 6 0 3 -5 -5 -10z m-70 -30 c-8 -5 -19 -10 -25 -10 -5 0 -3
5 5 10 8 5 20 10 25 10 6 0 3 -5 -5 -10z m-70 -30 c-8 -5 -19 -10 -25 -10 -5
0 -3 5 5 10 8 5 20 10 25 10 6 0 3 -5 -5 -10z m-50 -20 c-8 -5 -19 -10 -25
-10 -5 0 -3 5 5 10 8 5 20 10 25 10 6 0 3 -5 -5 -10z m-70 -30 c-8 -5 -19 -10
-25 -10 -5 0 -3 5 5 10 8 5 20 10 25 10 6 0 3 -5 -5 -10z"/>
<path d="M1581 1755 c-69 -28 -126 -55 -128 -61 -1 -5 1 -15 6 -23 7 -11 33
-4 135 40 69 29 126 58 126 64 -1 33 -20 30 -139 -20z"/>
<path d="M1598 1688 c-65 -28 -118 -56 -118 -62 1 -37 18 -35 135 15 66 28
124 54 128 58 10 10 -2 41 -17 40 -6 -1 -64 -24 -128 -51z"/>
<path d="M1630 1624 c-77 -33 -124 -58 -122 -66 10 -36 19 -35 145 19 70 31
127 58 127 62 0 4 -6 14 -12 23 -12 13 -28 9 -138 -38z"/>
<path d="M1653 1558 c-68 -29 -123 -55 -123 -58 0 -3 6 -15 14 -25 12 -17 19
-16 139 34 115 49 125 55 118 74 -4 12 -12 22 -17 23 -5 2 -64 -20 -131 -48z"/>
<path d="M8493 2874 c-24 -21 -153 -318 -153 -352 0 -52 18 -67 158 -127 75
-32 156 -60 178 -63 40 -4 42 -6 34 -31 -12 -41 -121 -295 -132 -308 -6 -7
-27 -13 -48 -13 -22 0 -46 -8 -58 -17 -25 -23 -92 -177 -92 -214 0 -63 9 -70
253 -173 244 -103 282 -115 314 -97 24 12 103 186 103 225 0 31 -17 67 -36 79
-8 4 -14 14 -14 22 0 15 119 305 131 318 4 5 17 2 30 -6 53 -34 290 -127 322
-127 19 0 44 8 56 17 25 22 151 316 151 354 0 15 -8 36 -17 48 -23 27 -1063
472 -1118 478 -30 4 -46 0 -62 -13z m602 -276 c286 -122 526 -226 533 -231 16
-13 15 -42 -3 -57 -8 -7 -12 -16 -9 -21 3 -5 -1 -21 -9 -36 -20 -41 -42 -90
-67 -156 -12 -31 -27 -60 -32 -63 -15 -10 -298 117 -298 133 0 8 6 27 13 41
15 29 37 80 55 124 10 25 9 27 -29 42 -22 9 -43 16 -47 16 -13 0 -27 -32 -173
-384 -57 -137 -99 -251 -94 -253 22 -7 75 -43 74 -50 -2 -27 -77 -178 -89
-180 -8 -2 -118 41 -245 95 -260 111 -247 99 -200 200 14 29 25 57 25 62 0 5
7 16 15 24 14 14 20 14 56 -1 22 -8 41 -14 43 -12 2 2 34 76 71 164 37 88 76
180 87 205 10 25 24 56 30 70 5 14 16 39 23 55 7 17 20 48 29 70 10 22 21 47
26 56 7 14 0 21 -40 37 l-48 20 -40 -91 c-24 -58 -45 -93 -56 -95 -10 -2 -78
22 -152 54 -97 42 -134 62 -134 74 0 10 12 44 26 76 14 33 32 75 41 94 8 19
21 49 28 65 8 17 16 40 20 53 4 14 14 22 28 22 12 0 255 -100 542 -222z"/>
<path d="M8552 2784 c10 -9 1053 -451 1057 -447 2 1 2 5 -1 8 -9 9 -1039 445
-1051 445 -6 0 -8 -3 -5 -6z"/>
<path d="M8526 2721 c-4 -6 1035 -455 1048 -452 23 5 -43 36 -426 198 -613
261 -617 263 -622 254z"/>
<path d="M8500 2657 c0 -18 240 -121 252 -109 6 6 -37 29 -104 57 -62 26 -121
52 -130 57 -13 6 -18 5 -18 -5z"/>
<path d="M8470 2589 c0 -12 218 -111 245 -111 43 1 -81 64 -227 118 -12 4 -18
1 -18 -7z"/>
<path d="M8442 2519 c4 -12 222 -108 246 -109 38 -1 -7 30 -104 72 -110 47
-149 57 -142 37z"/>
<path d="M8900 2487 c0 -16 241 -120 253 -108 4 4 -16 18 -45 31 -191 82 -208
89 -208 77z"/>
<path d="M8872 2419 c4 -11 226 -116 251 -118 4 -1 7 5 7 12 0 6 -51 33 -113
59 -153 64 -151 64 -145 47z"/>
<path d="M8842 2349 c4 -11 223 -109 246 -109 37 0 -5 28 -107 72 -114 48
-146 57 -139 37z"/>
<path d="M9300 2311 c0 -9 229 -111 249 -111 34 0 -3 23 -112 69 -129 54 -137
56 -137 42z"/>
<path d="M8815 2289 c-4 -6 -5 -12 -3 -14 15 -15 245 -105 256 -100 24 9 6 20
-121 74 -134 58 -124 54 -132 40z"/>
<path d="M9270 2249 c0 -11 140 -76 251 -117 5 -2 9 3 9 10 0 12 -91 54 -247
115 -7 3 -13 -1 -13 -8z"/>
<path d="M8786 2225 c-3 -8 -1 -17 3 -20 34 -20 245 -104 252 -99 18 11 8 22
-43 44 -205 88 -206 89 -212 75z"/>
<path d="M9244 2188 c-8 -13 3 -22 51 -41 22 -8 77 -31 122 -50 60 -27 83 -32
86 -23 7 17 -250 129 -259 114z"/>
<path d="M8760 2160 c0 -5 0 -13 -1 -17 -1 -9 244 -112 253 -107 24 15 -5 37
-114 83 -130 54 -138 57 -138 41z"/>
<path d="M8733 2094 c-8 -22 -2 -26 130 -82 112 -48 118 -49 127 -31 9 16 7
21 -12 28 -13 5 -61 26 -108 46 -132 58 -130 57 -137 39z"/>
<path d="M8703 2025 c-3 -9 -4 -17 -2 -19 2 -2 60 -27 127 -56 101 -43 126
-51 133 -39 5 8 9 16 9 19 0 6 -240 110 -253 110 -4 0 -10 -7 -14 -15z"/>
<path d="M8676 1963 c-4 -9 -3 -20 1 -24 4 -4 62 -31 127 -58 90 -38 122 -48
128 -38 4 6 6 16 5 21 -2 7 -240 116 -253 116 -1 0 -5 -8 -8 -17z"/>
<path d="M8646 1894 c-4 -9 -5 -19 -3 -21 2 -2 60 -28 128 -57 120 -52 138
-54 139 -20 0 11 -225 114 -248 114 -5 0 -13 -7 -16 -16z"/>
<path d="M8526 1864 c-4 -9 -5 -18 -4 -20 5 -4 424 -184 431 -184 3 0 11 9 17
20 9 17 7 22 -15 30 -14 6 -50 21 -78 34 -29 13 -97 42 -152 65 -55 23 -115
48 -133 56 -42 19 -58 19 -66 -1z"/>
<path d="M8500 1799 c-7 -11 -10 -22 -8 -24 2 -2 100 -44 218 -95 199 -84 216
-90 227 -73 8 9 12 21 11 25 -3 8 -415 188 -430 188 -4 0 -12 -9 -18 -21z"/>
<path d="M8477 1748 c-3 -10 59 -41 212 -106 119 -51 220 -92 224 -92 4 0 7 6
7 13 0 6 -91 51 -203 99 -249 107 -233 102 -240 86z"/>
</g>
</svg>
