<svg xmlns="http://www.w3.org/2000/svg" version="1.1" xmlns:xlink="http://www.w3.org/1999/xlink" xmlns:svgjs="http://svgjs.dev/svgjs" width="2000" height="1247" viewBox="0 0 2000 1247"><g transform="matrix(1,0,0,1,-1.2117511640158227,0.504858299595071)"><svg viewBox="0 0 396 247" data-background-color="#89aeaf" preserveAspectRatio="xMidYMid meet" height="1247" width="2000" xmlns="http://www.w3.org/2000/svg" xmlns:xlink="http://www.w3.org/1999/xlink"><defs></defs><g id="tight-bounds" transform="matrix(1,0,0,1,0.23992678622857966,-0.09999999999999432)"><svg viewBox="0 0 395.52 247.2" height="247.2" width="395.52"><g><svg></svg></g><g><svg viewBox="0 0 395.52 247.2" height="247.2" width="395.52"><g><path d="M55.039 247.2l36.723-63.607h2.281l-35.521 61.524h278.476l-35.521-61.524 2.281 0 36.723 63.607zM197.76 0l36.723 63.607-2.28 0-34.443-59.657-34.443 59.657-2.28 0z" fill="#fff701" data-fill-palette-color="tertiary"></path></g><g transform="matrix(1,0,0,1,0,80.74755290588666)"><svg viewBox="0 0 395.52 85.70489418822666" height="85.70489418822666" width="395.52"><g><svg viewBox="0 0 395.52 85.70489418822666" height="85.70489418822666" width="395.52"><g><svg viewBox="0 0 546.2763375266138 118.37215742630065" height="85.70489418822666" width="395.52"><g transform="matrix(1,0,0,1,150.75633752661378,16.35968311752781)"><svg viewBox="0 0 395.52 85.65279119124503" height="85.65279119124503" width="395.52"><g><svg viewBox="0 0 395.52 85.65279119124503" height="85.65279119124503" width="395.52"><g><svg viewBox="0 0 395.52 46.197022771043386" height="46.197022771043386" width="395.52"><g transform="matrix(1,0,0,1,0,0)"><svg width="395.52" viewBox="1.7999999523162842 -41.04999923706055 441.33001708984375 51.54999923706055" height="46.197022771043386" data-palette-color="#3731f3"><g class="undefined-text-0" data-fill-palette-color="primary" id="text-0"><path d="M30.5 10.5L30.5 10.5 21 10.5Q15.2 10.5 11.45 9.25 7.7 8 5.55 5.95 3.4 3.9 2.6 1.23 1.8-1.45 1.8-4.25L1.8-4.25 1.8-22.75Q1.8-25.5 2.6-27.83 3.4-30.15 5.4-31.85L5.4-31.85 11.9-37.3Q14-39.05 17.75-40.05 21.5-41.05 27.45-41.05L27.45-41.05Q33.3-41.05 37.05-40.1 40.8-39.15 42.9-37.45 45-35.75 45.8-33.38 46.6-31 46.6-28.2L46.6-28.2 46.6-15.2Q46.6-12.5 46-10.35 45.4-8.2 43.7-6.8L43.7-6.8 37.25-1.4Q37.05-1.25 36.8-1.07 36.55-0.9 36.35-0.75L36.35-0.75 36.95-0.75Q38.15-0.75 38.65-0.25 39.15 0.25 39.15 1.45L39.15 1.45 39.15 2.85Q39.15 3.5 39 3.93 38.85 4.35 38.55 4.6L38.55 4.6 38.5 4.65 32.05 10.05Q31.8 10.25 31.4 10.38 31 10.5 30.5 10.5ZM14.25-28.4L14.25-28.4 14.25-24.35 18.45-27.9Q19.3-28.6 20.6-29.1 21.9-29.6 23.75-29.75L23.75-29.75Q23.1-29.8 22.43-29.8 21.75-29.8 21-29.8L21-29.8Q19-29.8 17.3-29.68 15.6-29.55 14.3-29.3L14.3-29.3Q14.25-29.1 14.25-28.85 14.25-28.6 14.25-28.4ZM27.45 4.55L36.95 4.55Q37.9 4.55 38.27 4.17 38.65 3.8 38.65 2.85L38.65 2.85 38.65 1.45Q38.65 0.5 38.27 0.13 37.9-0.25 36.95-0.25L36.95-0.25 27.45-0.25Q23.35-0.25 20.68-0.78 18-1.3 16.48-2.25 14.95-3.2 14.35-4.55 13.75-5.9 13.75-7.5L13.75-7.5 13.75-28.4Q13.75-30 14.35-31.38 14.95-32.75 16.48-33.7 18-34.65 20.68-35.2 23.35-35.75 27.45-35.75L27.45-35.75Q31.55-35.75 34.23-35.2 36.9-34.65 38.4-33.7 39.9-32.75 40.5-31.38 41.1-30 41.1-28.4L41.1-28.4 41.1-15.1Q41.1-13.1 40.53-11.83 39.95-10.55 38-10.55L38-10.55 38-28Q38-28.65 37.68-28.98 37.35-29.3 36.7-29.3L36.7-29.3 25.45-29.3Q20.4-29.3 18.53-27.28 16.65-25.25 16.65-21.95L16.65-21.95 16.65-12.3Q16.65-9.05 18.53-7.03 20.4-5 25.45-5L25.45-5 34.9-5Q38.4-5 40.6-5.75 42.8-6.5 44.03-7.83 45.25-9.15 45.68-11.03 46.1-12.9 46.1-15.2L46.1-15.2 46.1-28.2Q46.1-30.95 45.3-33.23 44.5-35.5 42.43-37.13 40.35-38.75 36.7-39.65 33.05-40.55 27.45-40.55L27.45-40.55Q21.85-40.55 18.2-39.65 14.55-38.75 12.48-37.13 10.4-35.5 9.58-33.23 8.75-30.95 8.75-28.2L8.75-28.2 8.75-7.7Q8.75-5 9.58-2.73 10.4-0.45 12.48 1.15 14.55 2.75 18.2 3.65 21.85 4.55 27.45 4.55L27.45 4.55ZM36.15 2.5L27.45 2.5Q22 2.5 18.73 1.68 15.45 0.85 13.75-0.55 12.05-1.95 11.53-3.75 11-5.55 11-7.5L11-7.5 11-28.4Q11-30.35 11.53-32.18 12.05-34 13.75-35.38 15.45-36.75 18.73-37.58 22-38.4 27.45-38.4L27.45-38.4Q32.9-38.4 36.18-37.58 39.45-36.75 41.13-35.38 42.8-34 43.33-32.18 43.85-30.35 43.85-28.4L43.85-28.4 43.85-15.1Q43.85-11.35 42.5-9.68 41.15-8 38-8L38-8 24.9-8Q22.45-8 21.45-9.18 20.45-10.35 20.45-13.05L20.45-13.05 20.45-21.1Q20.45-22.1 20.55-23.05 20.65-24 21.28-24.73 21.9-25.45 23.23-25.9 24.55-26.35 27-26.35L27-26.35 34.2-26.35 34.2-8.5 38-8.5Q40.9-8.5 42.13-10.08 43.35-11.65 43.35-15.1L43.35-15.1 43.35-28.4Q43.35-30.3 42.83-32.02 42.3-33.75 40.63-35.05 38.95-36.35 35.8-37.13 32.65-37.9 27.45-37.9L27.45-37.9Q22.25-37.9 19.1-37.13 15.95-36.35 14.28-35.05 12.6-33.75 12.05-32.02 11.5-30.3 11.5-28.4L11.5-28.4 11.5-7.5Q11.5-5.65 12.03-3.93 12.55-2.2 14.23-0.88 15.9 0.45 19.07 1.23 22.25 2 27.45 2L27.45 2 36.15 2 36.15 2.5ZM24.9-8.5L24.9-8.5 33.7-8.5 33.7-25.85 27-25.85Q24.8-25.85 23.58-25.45 22.35-25.05 21.78-24.4 21.2-23.75 21.08-22.88 20.95-22 20.95-21.1L20.95-21.1 20.95-13.05Q20.95-10.65 21.83-9.58 22.7-8.5 24.9-8.5ZM29.85-11.85L26.5-11.85Q25.5-11.85 25.15-12.33 24.8-12.8 24.8-13.55L24.8-13.55 24.8-21.1Q24.8-21.75 25.2-22.33 25.6-22.9 27-22.9L27-22.9 29.85-22.9 29.85-11.85ZM77.85 5.95L77.85 5.95 70.15 5.95Q68.95 5.95 68.4 5.4 67.85 4.85 67.85 3.65L67.85 3.65 67.85-2.4 59.9-2.4Q54.75-2.4 52.52-5.3 50.3-8.2 50.3-12.7L50.3-12.7 50.3-28.75Q50.3-29.4 50.47-29.85 50.65-30.3 51-30.6L51-30.6 57.45-36.05Q57.7-36.25 58.12-36.38 58.55-36.5 59.05-36.5L59.05-36.5 66.8-36.5Q68-36.5 68.55-35.95 69.1-35.4 69.1-34.2L69.1-34.2 69.1-31.05 75-36.05Q75.25-36.25 75.67-36.38 76.1-36.5 76.6-36.5L76.6-36.5 84.3-36.5Q85.5-36.5 86.05-35.95 86.6-35.4 86.6-34.2L86.6-34.2 86.6-1.8Q86.6-1.15 86.42-0.7 86.25-0.25 85.9 0.05L85.9 0.05 79.4 5.45Q79.2 5.65 78.77 5.8 78.35 5.95 77.85 5.95ZM66.35-8.35L74.8-8.35 74.8-1.8Q74.8-0.85 75.22-0.43 75.65 0 76.6 0L76.6 0 84.3 0Q85.25 0 85.67-0.43 86.1-0.85 86.1-1.8L86.1-1.8 86.1-34.2Q86.1-35.15 85.67-35.58 85.25-36 84.3-36L84.3-36 76.6-36Q75.65-36 75.22-35.58 74.8-35.15 74.8-34.2L74.8-34.2 74.8-18.8 70.15-18.8Q69.45-18.8 69.02-19.25 68.6-19.7 68.6-20.5L68.6-20.5 68.6-34.2Q68.6-35.15 68.17-35.58 67.75-36 66.8-36L66.8-36 59.05-36Q58.1-36 57.67-35.58 57.25-35.15 57.25-34.2L57.25-34.2 57.25-16.65Q57.25-12.4 59.37-10.38 61.5-8.35 66.35-8.35L66.35-8.35ZM80.7-4.5L80.2-4.5 80.2-13.35 68.25-13.35Q65.4-13.35 64.05-14.68 62.7-16 62.7-18.6L62.7-18.6 62.7-31.5 63.2-31.5 63.2-18.6Q63.2-16.2 64.45-15.03 65.7-13.85 68.25-13.85L68.25-13.85 80.2-13.85 80.2-31.5 80.7-31.5 80.7-4.5ZM115.7 5.95L115.7 5.95 91.9 5.95Q90.7 5.95 90.15 5.4 89.6 4.85 89.6 3.65L89.6 3.65 89.6-4.95Q89.6-8.55 90.45-10.65 91.3-12.75 92.8-14L92.8-14 99.25-19.45Q99.65-19.8 100.1-20.08 100.55-20.35 101.05-20.6L101.05-20.6 93.8-20.6Q92.6-20.6 92.05-21.15 91.5-21.7 91.5-22.9L91.5-22.9 91.5-28.75Q91.5-29.4 91.67-29.85 91.85-30.3 92.2-30.6L92.2-30.6 98.65-36.05Q98.9-36.25 99.32-36.38 99.75-36.5 100.25-36.5L100.25-36.5 115-36.5Q119.5-36.5 121.9-34.23 124.3-31.95 124.3-27.7L124.3-27.7 124.3-23Q124.3-20.7 123.55-19.05 122.8-17.4 121.4-16.25L121.4-16.25 114.95-10.85Q114.65-10.65 114.32-10.4 114-10.15 113.65-9.95L113.65-9.95 122.15-9.95Q123.35-9.95 123.9-9.4 124.45-8.85 124.45-7.65L124.45-7.65 124.45-1.8Q124.45-1.15 124.27-0.7 124.1-0.25 123.75 0.05L123.75 0.05 117.25 5.45Q117.05 5.65 116.62 5.8 116.2 5.95 115.7 5.95ZM98.35 0L122.15 0Q123.1 0 123.52-0.43 123.95-0.85 123.95-1.8L123.95-1.8 123.95-7.65Q123.95-8.6 123.52-9.03 123.1-9.45 122.15-9.45L122.15-9.45 107.9-9.45 107.9-10.5Q107.9-11.3 108.17-11.55 108.45-11.8 109.2-12L109.2-12 116-14.15Q119.6-15.25 121.7-17.25 123.8-19.25 123.8-23L123.8-23 123.8-27.7Q123.8-31.75 121.52-33.88 119.25-36 115-36L115-36 100.25-36Q99.3-36 98.87-35.58 98.45-35.15 98.45-34.2L98.45-34.2 98.45-28.35Q98.45-27.4 98.87-26.98 99.3-26.55 100.25-26.55L100.25-26.55 111.1-26.55Q111.85-26.55 112.15-26.28 112.45-26 112.45-25.25L112.45-25.25Q112.45-24.45 112.17-24.05 111.9-23.65 111.1-23.45L111.1-23.45 104.4-21.35Q102.7-20.85 101.25-20.15 99.8-19.45 98.75-18.25 97.7-17.05 97.12-15.18 96.55-13.3 96.55-10.4L96.55-10.4 96.55-1.8Q96.55-0.85 96.97-0.43 97.4 0 98.35 0L98.35 0ZM104.75-16.4L104.75-16.4 116.4-20.25Q117.05-20.5 117.45-21.08 117.85-21.65 117.85-22.6L117.85-22.6 117.85-27.15Q117.85-29.45 116.55-30.23 115.25-31 113-31L113-31 102.95-31 102.95-31.5 113-31.5Q115.55-31.5 116.95-30.58 118.35-29.65 118.35-27.15L118.35-27.15 118.35-22.6Q118.35-21.45 117.87-20.8 117.4-20.15 116.6-19.8L116.6-19.8 104.95-15.95Q103.55-15.45 103-14.73 102.45-14 102.45-12.3L102.45-12.3 102.45-5 119.45-5 119.45-4.5 102-4.5 102-12.3Q102-14.15 102.6-15.03 103.2-15.9 104.75-16.4ZM145.19 5.95L129.39 5.95Q128.19 5.95 127.64 5.4 127.09 4.85 127.09 3.65L127.09 3.65 127.09-2.2Q127.09-2.85 127.27-3.3 127.44-3.75 127.79-4.05L127.79-4.05 132.79-8.25Q130.14-9.05 128.62-10.98 127.09-12.9 127.09-16.5L127.09-16.5 127.09-21.75Q127.09-24 127.84-25.75 128.59-27.5 129.99-28.7L129.99-28.7 136.49-34.15Q137.84-35.25 139.84-35.88 141.84-36.5 144.39-36.5L144.39-36.5 158.39-36.5Q159.59-36.5 160.14-35.95 160.69-35.4 160.69-34.2L160.69-34.2 160.69-28.25Q160.69-27.6 160.52-27.15 160.34-26.7 159.99-26.4L159.99-26.4 155.49-22.65Q158.64-21.95 160.57-20.03 162.49-18.1 162.49-14.05L162.49-14.05 162.49-8.8Q162.49-6.55 161.74-4.8 160.99-3.05 159.54-1.85L159.54-1.85 153.09 3.55Q151.69 4.7 149.69 5.33 147.69 5.95 145.19 5.95L145.19 5.95ZM135.84 0L151.64 0Q156.44 0 159.22-2.27 161.99-4.55 161.99-8.8L161.99-8.8 161.99-14.05Q161.99-18.25 159.84-20.05 157.69-21.85 154.19-22.35L154.19-22.35 146.74-23.35Q146.09-23.4 145.74-23.85 145.39-24.3 145.39-24.95L145.39-24.95Q145.39-25.6 145.74-26.03 146.09-26.45 146.74-26.45L146.74-26.45 158.39-26.45Q159.34-26.45 159.77-26.88 160.19-27.3 160.19-28.25L160.19-28.25 160.19-34.2Q160.19-35.15 159.77-35.58 159.34-36 158.39-36L158.39-36 144.39-36Q139.54-36 136.79-33.73 134.04-31.45 134.04-27.2L134.04-27.2 134.04-21.95Q134.04-17.75 136.17-15.95 138.29-14.15 141.79-13.65L141.79-13.65 149.29-12.6Q149.94-12.55 150.27-12.15 150.59-11.75 150.59-10.9L150.59-10.9Q150.59-10.3 150.27-9.88 149.94-9.45 149.29-9.45L149.29-9.45 135.84-9.45Q134.89-9.45 134.47-9.03 134.04-8.6 134.04-7.65L134.04-7.65 134.04-1.8Q134.04-0.85 134.47-0.43 134.89 0 135.84 0L135.84 0ZM144.59-31.5L155.69-31.5 155.69-31 144.59-31Q142.49-31 141.24-29.85 139.99-28.7 139.99-26.95L139.99-26.95 139.99-22.85Q139.99-21.1 140.69-20.4 141.39-19.7 142.54-19.5L142.54-19.5 153.09-17.35Q154.59-17.05 155.57-16.05 156.54-15.05 156.54-12.45L156.54-12.45 156.54-9.55Q156.54-7.35 155.04-5.93 153.54-4.5 150.99-4.5L150.99-4.5 138.54-4.5 138.54-5 150.99-5Q153.29-5 154.67-6.28 156.04-7.55 156.04-9.55L156.04-9.55 156.04-12.45Q156.04-14.8 155.22-15.68 154.39-16.55 152.99-16.85L152.99-16.85 142.44-19Q141.14-19.25 140.32-20.03 139.49-20.8 139.49-22.85L139.49-22.85 139.49-26.95Q139.49-28.95 140.89-30.23 142.29-31.5 144.59-31.5L144.59-31.5ZM178.34-4.5L177.84-4.5 177.84-31.5 178.34-31.5 178.34-18.25 197.54-18.25 197.54-31.5 198.04-31.5 198.04-4.5 197.54-4.5 197.54-17.75 178.34-17.75 178.34-4.5ZM174.24 0L181.99 0Q182.94 0 183.37-0.43 183.79-0.85 183.79-1.8L183.79-1.8 183.79-12.9 192.14-12.9 192.14-1.8Q192.14-0.85 192.56-0.43 192.99 0 193.94 0L193.94 0 201.69 0Q202.64 0 203.06-0.43 203.49-0.85 203.49-1.8L203.49-1.8 203.49-34.2Q203.49-35.15 203.06-35.58 202.64-36 201.69-36L201.69-36 193.94-36Q192.99-36 192.56-35.58 192.14-35.15 192.14-34.2L192.14-34.2 192.14-23.35 183.79-23.35 183.79-34.2Q183.79-35.15 183.37-35.58 182.94-36 181.99-36L181.99-36 174.24-36Q173.29-36 172.87-35.58 172.44-35.15 172.44-34.2L172.44-34.2 172.44-1.8Q172.44-0.85 172.87-0.43 173.29 0 174.24 0L174.24 0ZM183.59 0.05L183.59 0.05 177.09 5.45Q176.89 5.65 176.47 5.8 176.04 5.95 175.54 5.95L175.54 5.95 167.79 5.95Q166.59 5.95 166.04 5.4 165.49 4.85 165.49 3.65L165.49 3.65 165.49-28.75Q165.49-29.4 165.67-29.85 165.84-30.3 166.19-30.6L166.19-30.6 172.64-36.05Q172.89-36.25 173.31-36.38 173.74-36.5 174.24-36.5L174.24-36.5 181.99-36.5Q183.19-36.5 183.74-35.95 184.29-35.4 184.29-34.2L184.29-34.2 184.29-23.85 185.19-23.85 185.19-28.75Q185.19-29.4 185.37-29.85 185.54-30.3 185.89-30.6L185.89-30.6 192.34-36.05Q192.59-36.25 193.02-36.38 193.44-36.5 193.94-36.5L193.94-36.5 201.69-36.5Q202.89-36.5 203.44-35.95 203.99-35.4 203.99-34.2L203.99-34.2 203.99-1.8Q203.99-1.15 203.81-0.7 203.64-0.25 203.29 0.05L203.29 0.05 196.79 5.45Q196.59 5.65 196.17 5.8 195.74 5.95 195.24 5.95L195.24 5.95 187.49 5.95Q186.29 5.95 185.74 5.4 185.19 4.85 185.19 3.65L185.19 3.65 185.19-6.95 184.29-6.95 184.29-1.8Q184.29-1.15 184.12-0.7 183.94-0.25 183.59 0.05ZM243.39-1.85L236.94 3.55Q235.19 5.05 232.04 5.88 228.89 6.7 223.94 6.7L223.94 6.7Q219.04 6.7 215.91 5.68 212.79 4.65 211.01 2.95 209.24 1.25 208.56-0.95 207.89-3.15 207.89-5.5L207.89-5.5 207.89-21.05Q207.89-23.35 208.54-25.33 209.19-27.3 210.89-28.7L210.89-28.7 217.39-34.1Q219.14-35.6 222.26-36.43 225.39-37.25 230.39-37.25L230.39-37.25Q235.29-37.25 238.41-36.45 241.54-35.65 243.31-34.23 245.09-32.8 245.74-30.83 246.39-28.85 246.39-26.5L246.39-26.5 246.39-9.45Q246.39-7.15 245.74-5.2 245.09-3.25 243.39-1.85L243.39-1.85ZM245.89-9.45L245.89-9.45 245.89-26.5Q245.89-28.8 245.21-30.68 244.54-32.55 242.81-33.9 241.09-35.25 238.06-36 235.04-36.75 230.39-36.75L230.39-36.75Q225.74-36.75 222.69-36 219.64-35.25 217.91-33.9 216.19-32.55 215.51-30.68 214.84-28.8 214.84-26.5L214.84-26.5 214.84-9.45Q214.84-7.15 215.51-5.28 216.19-3.4 217.91-2.08 219.64-0.75 222.69 0 225.74 0.75 230.39 0.75L230.39 0.75Q235.04 0.75 238.06 0 241.09-0.75 242.81-2.08 244.54-3.4 245.21-5.28 245.89-7.15 245.89-9.45ZM240.44-25.35L240.44-10.6Q240.44-7.6 238.29-5.73 236.14-3.85 230.29-3.85L230.29-3.85Q224.44-3.85 222.34-5.73 220.24-7.6 220.24-10.6L220.24-10.6 220.24-25.35Q220.24-28.35 222.34-30.23 224.44-32.1 230.29-32.1L230.29-32.1Q236.14-32.1 238.29-30.23 240.44-28.35 240.44-25.35L240.44-25.35ZM220.74-25.35L220.74-10.6Q220.74-7.8 222.74-6.08 224.74-4.35 230.29-4.35L230.29-4.35Q235.84-4.35 237.89-6.08 239.94-7.8 239.94-10.6L239.94-10.6 239.94-25.35Q239.94-28.15 237.89-29.88 235.84-31.6 230.29-31.6L230.29-31.6Q224.74-31.6 222.74-29.88 220.74-28.15 220.74-25.35L220.74-25.35ZM226.19-11.25L226.19-11.25 226.19-24.7Q226.19-25.65 226.94-26.33 227.69-27 230.39-27L230.39-27Q233.09-27 233.84-26.33 234.59-25.65 234.59-24.7L234.59-24.7 234.59-11.25Q234.59-10.25 233.84-9.58 233.09-8.9 230.39-8.9L230.39-8.9Q227.69-8.9 226.94-9.58 226.19-10.25 226.19-11.25ZM226.69-20.7L226.69-11.25Q226.69-10.75 226.89-10.38 227.09-10 227.64-9.75L227.64-9.75 227.64-19.25Q227.64-19.75 227.44-20.13 227.24-20.5 226.69-20.7L226.69-20.7ZM260.33 5.95L260.33 5.95 252.59 5.95Q251.38 5.95 250.84 5.4 250.28 4.85 250.28 3.65L250.28 3.65 250.28-28.75Q250.28-29.4 250.46-29.85 250.63-30.3 250.98-30.6L250.98-30.6 257.44-36.05Q257.69-36.25 258.11-36.38 258.53-36.5 259.03-36.5L259.03-36.5 274.33-36.5Q277.88-36.5 280.28-35.75 282.69-35 284.08-33.65 285.49-32.3 286.06-30.4 286.63-28.5 286.63-26.25L286.63-26.25 286.63-19.85Q286.63-17.45 285.96-15.48 285.28-13.5 283.63-12.1L283.63-12.1 277.13-6.7Q275.88-5.65 273.91-4.98 271.94-4.3 269.08-4.2L269.08-4.2 269.08-1.8Q269.08-1.15 268.91-0.7 268.74-0.25 268.38 0.05L268.38 0.05 261.88 5.45Q261.69 5.65 261.26 5.8 260.83 5.95 260.33 5.95ZM259.03 0L266.78 0Q267.74 0 268.16-0.43 268.58-0.85 268.58-1.8L268.58-1.8 268.58-10.1 274.33-10.1Q281.13-10.1 283.63-12.8 286.13-15.5 286.13-19.85L286.13-19.85 286.13-26.25Q286.13-30.6 283.63-33.3 281.13-36 274.33-36L274.33-36 259.03-36Q258.08-36 257.66-35.58 257.24-35.15 257.24-34.2L257.24-34.2 257.24-1.8Q257.24-0.85 257.66-0.43 258.08 0 259.03 0L259.03 0ZM273.63-14.35L273.63-14.35 263.33-14.35 263.33-4.5 262.83-4.5 262.83-31.5 273.63-31.5Q275.99-31.5 277.46-30.98 278.94-30.45 279.74-29.55 280.53-28.65 280.83-27.4 281.13-26.15 281.13-24.7L281.13-24.7 281.13-21Q281.13-19.55 280.83-18.32 280.53-17.1 279.74-16.23 278.94-15.35 277.46-14.85 275.99-14.35 273.63-14.35ZM263.33-31L263.33-14.85 273.63-14.85Q275.83-14.85 277.21-15.3 278.58-15.75 279.33-16.57 280.08-17.4 280.36-18.53 280.63-19.65 280.63-21L280.63-21 280.63-24.7Q280.63-26.05 280.36-27.2 280.08-28.35 279.33-29.2 278.58-30.05 277.21-30.53 275.83-31 273.63-31L273.63-31 263.33-31ZM268.49-19.1L268.49-26.65 272.99-26.65Q274.44-26.65 274.88-25.9 275.33-25.15 275.33-24.2L275.33-24.2 275.33-21.55Q275.33-20.6 274.88-19.85 274.44-19.1 272.99-19.1L272.99-19.1 268.49-19.1ZM299.43 5.95L299.43 5.95 291.68 5.95Q290.48 5.95 289.93 5.4 289.38 4.85 289.38 3.65L289.38 3.65 289.38-28.75Q289.38-29.4 289.56-29.85 289.73-30.3 290.08-30.6L290.08-30.6 296.53-36.05Q296.78-36.25 297.21-36.38 297.63-36.5 298.13-36.5L298.13-36.5 313.43-36.5Q316.98-36.5 319.38-35.75 321.78-35 323.18-33.65 324.58-32.3 325.16-30.4 325.73-28.5 325.73-26.25L325.73-26.25 325.73-19.85Q325.73-17.45 325.06-15.48 324.38-13.5 322.73-12.1L322.73-12.1 316.23-6.7Q314.98-5.65 313.01-4.98 311.03-4.3 308.18-4.2L308.18-4.2 308.18-1.8Q308.18-1.15 308.01-0.7 307.83-0.25 307.48 0.05L307.48 0.05 300.98 5.45Q300.78 5.65 300.36 5.8 299.93 5.95 299.43 5.95ZM298.13 0L305.88 0Q306.83 0 307.26-0.43 307.68-0.85 307.68-1.8L307.68-1.8 307.68-10.1 313.43-10.1Q320.23-10.1 322.73-12.8 325.23-15.5 325.23-19.85L325.23-19.85 325.23-26.25Q325.23-30.6 322.73-33.3 320.23-36 313.43-36L313.43-36 298.13-36Q297.18-36 296.76-35.58 296.33-35.15 296.33-34.2L296.33-34.2 296.33-1.8Q296.33-0.85 296.76-0.43 297.18 0 298.13 0L298.13 0ZM312.73-14.35L312.73-14.35 302.43-14.35 302.43-4.5 301.93-4.5 301.93-31.5 312.73-31.5Q315.08-31.5 316.56-30.98 318.03-30.45 318.83-29.55 319.63-28.65 319.93-27.4 320.23-26.15 320.23-24.7L320.23-24.7 320.23-21Q320.23-19.55 319.93-18.32 319.63-17.1 318.83-16.23 318.03-15.35 316.56-14.85 315.08-14.35 312.73-14.35ZM302.43-31L302.43-14.85 312.73-14.85Q314.93-14.85 316.31-15.3 317.68-15.75 318.43-16.57 319.18-17.4 319.46-18.53 319.73-19.65 319.73-21L319.73-21 319.73-24.7Q319.73-26.05 319.46-27.2 319.18-28.35 318.43-29.2 317.68-30.05 316.31-30.53 314.93-31 312.73-31L312.73-31 302.43-31ZM307.58-19.1L307.58-26.65 312.08-26.65Q313.53-26.65 313.98-25.9 314.43-25.15 314.43-24.2L314.43-24.2 314.43-21.55Q314.43-20.6 313.98-19.85 313.53-19.1 312.08-19.1L312.08-19.1 307.58-19.1ZM351.28 5.95L351.28 5.95 329.98 5.95Q328.78 5.95 328.23 5.4 327.68 4.85 327.68 3.65L327.68 3.65 327.68-2.3Q327.68-2.95 327.86-3.4 328.03-3.85 328.38-4.15L328.38-4.15 334.43-9.25 334.43-20.4 329.98-20.4Q328.78-20.4 328.23-20.95 327.68-21.5 327.68-22.7L327.68-22.7 327.68-28.75Q327.68-29.4 327.86-29.85 328.03-30.3 328.38-30.6L328.38-30.6 334.83-36.05Q335.08-36.25 335.5-36.38 335.93-36.5 336.43-36.5L336.43-36.5 357.73-36.5Q358.93-36.5 359.48-35.95 360.03-35.4 360.03-34.2L360.03-34.2 360.03-28.15Q360.03-27.5 359.86-27.05 359.68-26.6 359.33-26.3L359.33-26.3 353.38-21.3 353.38-10.05 357.73-10.05Q358.93-10.05 359.48-9.5 360.03-8.95 360.03-7.75L360.03-7.75 360.03-1.8Q360.03-1.15 359.86-0.7 359.68-0.25 359.33 0.05L359.33 0.05 352.83 5.45Q352.63 5.65 352.21 5.8 351.78 5.95 351.28 5.95ZM336.43 0L336.43 0 357.73 0Q358.68 0 359.11-0.43 359.53-0.85 359.53-1.8L359.53-1.8 359.53-7.75Q359.53-8.7 359.11-9.13 358.68-9.55 357.73-9.55L357.73-9.55 352.88-9.55 352.88-26.35 357.73-26.35Q358.68-26.35 359.11-26.78 359.53-27.2 359.53-28.15L359.53-28.15 359.53-34.2Q359.53-35.15 359.11-35.58 358.68-36 357.73-36L357.73-36 336.43-36Q335.48-36 335.06-35.58 334.63-35.15 334.63-34.2L334.63-34.2 334.63-28.15Q334.63-27.2 335.06-26.78 335.48-26.35 336.43-26.35L336.43-26.35 341.38-26.35 341.38-9.55 336.43-9.55Q335.48-9.55 335.06-9.13 334.63-8.7 334.63-7.75L334.63-7.75 334.63-1.8Q334.63-0.85 335.06-0.43 335.48 0 336.43 0ZM355.03-5L355.03-4.5 339.13-4.5 339.13-5 346.88-5 346.88-31 339.13-31 339.13-31.5 355.03-31.5 355.03-31 347.38-31 347.38-5 355.03-5ZM377.28-31.1L377.28-31.1 395.68-10.4 395.68-31.5 396.18-31.5 396.18-4.5 395.68-4.5 395.68-9.65 376.78-30.85Q376.73-30.9 376.65-30.95 376.58-31 376.53-31L376.53-31Q376.48-31 376.45-30.95 376.43-30.9 376.43-30.85L376.43-30.85 376.43-4.5 375.93-4.5 375.93-30.95Q375.93-31.25 376.13-31.4 376.33-31.55 376.53-31.55L376.53-31.55Q376.73-31.55 376.88-31.45 377.03-31.35 377.28-31.1ZM372.48 0L379.98 0Q380.93 0 381.35-0.43 381.78-0.85 381.78-1.8L381.78-1.8 381.78-18.3 390.33-7.95 390.33-1.8Q390.33-0.85 390.75-0.43 391.18 0 392.13 0L392.13 0 399.63 0Q400.58 0 401-0.43 401.43-0.85 401.43-1.8L401.43-1.8 401.43-34.2Q401.43-35.15 401-35.58 400.58-36 399.63-36L399.63-36 392.13-36Q391.18-36 390.75-35.58 390.33-35.15 390.33-34.2L390.33-34.2 390.33-23.55 380.63-34.65Q379.98-35.4 379.3-35.7 378.63-36 377.68-36L377.68-36 372.48-36Q371.53-36 371.1-35.58 370.68-35.15 370.68-34.2L370.68-34.2 370.68-1.8Q370.68-0.85 371.1-0.43 371.53 0 372.48 0L372.48 0ZM381.58 0.05L381.58 0.05 375.08 5.45Q374.88 5.65 374.45 5.8 374.03 5.95 373.53 5.95L373.53 5.95 366.03 5.95Q364.83 5.95 364.28 5.4 363.73 4.85 363.73 3.65L363.73 3.65 363.73-28.75Q363.73-29.4 363.9-29.85 364.08-30.3 364.43-30.6L364.43-30.6 370.88-36.05Q371.13-36.25 371.55-36.38 371.98-36.5 372.48-36.5L372.48-36.5 377.68-36.5Q378.78-36.5 379.53-36.15 380.28-35.8 381.03-35L381.03-35 384.48-31 390.53-36.05Q390.78-36.25 391.2-36.38 391.63-36.5 392.13-36.5L392.13-36.5 399.63-36.5Q400.83-36.5 401.38-35.95 401.93-35.4 401.93-34.2L401.93-34.2 401.93-1.8Q401.93-1.15 401.75-0.7 401.58-0.25 401.23 0.05L401.23 0.05 394.73 5.45Q394.53 5.65 394.1 5.8 393.68 5.95 393.18 5.95L393.18 5.95 385.68 5.95Q384.48 5.95 383.93 5.4 383.38 4.85 383.38 3.65L383.38 3.65 383.38-2.3 382.28-3.65 382.28-1.8Q382.28-1.15 382.1-0.7 381.93-0.25 381.58 0.05ZM434.38 5.95L434.38 5.95 418.63 5.95Q412.08 5.95 408.95 2.55 405.83-0.85 405.83-6.25L405.83-6.25 405.83-20.35Q405.83-23.1 406.63-25.1 407.43-27.1 408.98-28.45L408.98-28.45 415.43-33.9Q416.98-35.2 419.4-35.85 421.83-36.5 425.08-36.5L425.08-36.5 437.58-36.5Q438.78-36.5 439.33-35.95 439.88-35.4 439.88-34.2L439.88-34.2 439.88-28.15Q439.88-27.5 439.7-27.05 439.53-26.6 439.18-26.3L439.18-26.3 432.68-20.9Q432.48-20.7 432.05-20.55 431.63-20.4 431.13-20.4L431.13-20.4 424.63-20.4 424.63-13.2Q424.68-13.3 424.8-13.43 424.93-13.55 425.03-13.65L425.03-13.65 431.48-19.1Q431.73-19.3 432.15-19.43 432.58-19.55 433.08-19.55L433.08-19.55 440.83-19.55Q442.03-19.55 442.58-19 443.13-18.45 443.13-17.25L443.13-17.25 443.13-1.8Q443.13-1.15 442.95-0.7 442.78-0.25 442.43 0.05L442.43 0.05 435.93 5.45Q435.73 5.65 435.3 5.8 434.88 5.95 434.38 5.95ZM425.08 0L440.83 0Q441.78 0 442.2-0.43 442.63-0.85 442.63-1.8L442.63-1.8 442.63-17.25Q442.63-18.2 442.2-18.63 441.78-19.05 440.83-19.05L440.83-19.05 433.08-19.05Q432.13-19.05 431.7-18.63 431.28-18.2 431.28-17.25L431.28-17.25 431.28-9.45 426.43-9.45Q425.28-9.45 424.7-10.05 424.13-10.65 424.13-11.9L424.13-11.9 424.13-23.85Q424.13-25.1 424.88-25.73 425.63-26.35 427.18-26.35L427.18-26.35 437.58-26.35Q438.53-26.35 438.95-26.78 439.38-27.2 439.38-28.15L439.38-28.15 439.38-34.2Q439.38-35.15 438.95-35.58 438.53-36 437.58-36L437.58-36 425.08-36Q418.83-36 415.8-33.5 412.78-31 412.78-25.8L412.78-25.8 412.78-10.2Q412.78-5 415.8-2.5 418.83 0 425.08 0L425.08 0ZM437.18-4.5L427.23-4.5Q424.48-4.5 422.73-4.85 420.98-5.2 419.98-5.98 418.98-6.75 418.6-7.98 418.23-9.2 418.23-10.95L418.23-10.95 418.23-24.95Q418.23-28.5 419.83-30 421.43-31.5 426.23-31.5L426.23-31.5 434.88-31.5 434.88-31 426.23-31Q421.83-31 420.28-29.63 418.73-28.25 418.73-24.95L418.73-24.95 418.73-10.95Q418.73-7.7 420.45-6.35 422.18-5 427.23-5L427.23-5 436.68-5 436.68-14.55 437.18-14.55 437.18-4.5Z" fill="#3731f3" data-fill-palette-color="primary"></path></g></svg></g></svg></g><g transform="matrix(1,0,0,1,0,57.103031118740226)"><svg viewBox="0 0 395.52 28.549760072504814" height="28.549760072504814" width="395.52"><g transform="matrix(1,0,0,1,0,0)"><svg width="395.52" viewBox="3.75 -37.5 529.7847290039062 37.70000076293945" height="28.549760072504814" data-palette-color="#222222"><g class="undefined-text-1" data-fill-palette-color="secondary" id="text-1"><path d="M18.55-20.1L18.55-20.1Q24.1-18.05 24.1-10.85L24.1-10.85Q24.1-7.2 23.28-5.2 22.45-3.2 20.9-2.05L20.9-2.05Q18.05 0 12 0L12 0 3.75 0 3.75-35 11.25-35Q19.15-35 21.25-31L21.25-31Q22-29.6 22-27.6 22-25.6 20.98-23.5 19.95-21.4 18.55-20.1ZM13-18.15L7.15-18.15 7.15-2.75 11.75-2.75Q16.4-2.75 18.3-4L18.3-4Q20.7-5.55 20.7-10.15L20.7-10.15Q20.7-16.4 16.3-17.7L16.3-17.7Q14.85-18.15 13-18.15L13-18.15ZM16.15-20.7L16.15-20.7Q18.6-23.9 18.6-27 18.6-30.1 16.65-31.18 14.7-32.25 11-32.25L11-32.25 7.15-32.25 7.15-20.9 13.25-20.9Q14.75-20.9 16.15-20.7ZM44.21-12.3L44.21-11.5Q44.21-2.7 52.61-2.7L52.61-2.7Q56.16-2.7 59.11-3.65L59.11-3.65Q59.86-3.9 60.16-4.05L60.16-4.05 60.91-1.4Q59.16-0.35 54.56 0.1L54.56 0.1Q53.26 0.2 51.81 0.2L51.81 0.2Q47.61 0.2 44.81-1.9L44.81-1.9Q40.96-4.75 40.96-11.4 40.96-18.05 44.44-21.63 47.91-25.2 52.86-25.2 57.81-25.2 60.31-22L60.31-22Q62.21-19.45 62.21-15.25L62.21-15.25Q62.21-14.25 62.11-13.15L62.11-13.15 44.26-13.15Q44.21-12.75 44.21-12.3L44.21-12.3ZM53.06-22.1L53.06-22.1Q49.96-22.1 47.76-20.23 45.56-18.35 44.71-15.4L44.71-15.4 59.26-15.4Q59.01-20.95 54.96-21.85L54.96-21.85Q54.06-22.1 53.06-22.1ZM82.62 0L79.37 0 79.37-37.25 82.62-37.5 82.62 0ZM100.53-25L103.78-25.25 103.78 0 100.53 0 100.53-25ZM102.03-31.7Q101.03-31.7 100.51-32.35 99.98-33 99.98-34 99.98-35 100.56-35.63 101.13-36.25 102.13-36.25 103.13-36.25 103.76-35.63 104.38-35 104.38-33.9 104.38-32.8 103.71-32.25 103.03-31.7 102.03-31.7ZM125.24-12.3L125.24-11.5Q125.24-2.7 133.64-2.7L133.64-2.7Q137.19-2.7 140.14-3.65L140.14-3.65Q140.89-3.9 141.19-4.05L141.19-4.05 141.94-1.4Q140.19-0.35 135.59 0.1L135.59 0.1Q134.29 0.2 132.84 0.2L132.84 0.2Q128.64 0.2 125.84-1.9L125.84-1.9Q121.99-4.75 121.99-11.4 121.99-18.05 125.47-21.63 128.94-25.2 133.89-25.2 138.84-25.2 141.34-22L141.34-22Q143.24-19.45 143.24-15.25L143.24-15.25Q143.24-14.25 143.14-13.15L143.14-13.15 125.29-13.15Q125.24-12.75 125.24-12.3L125.24-12.3ZM134.09-22.1L134.09-22.1Q130.99-22.1 128.79-20.23 126.59-18.35 125.74-15.4L125.74-15.4 140.29-15.4Q140.04-20.95 135.99-21.85L135.99-21.85Q135.09-22.1 134.09-22.1ZM168.15 0L158.9-25 162.55-25.25 169.8-3.85 177.65-25 181.25-25.25 171.15 0 168.15 0ZM201.16-12.3L201.16-11.5Q201.16-2.7 209.56-2.7L209.56-2.7Q213.11-2.7 216.06-3.65L216.06-3.65Q216.81-3.9 217.11-4.05L217.11-4.05 217.86-1.4Q216.11-0.35 211.51 0.1L211.51 0.1Q210.21 0.2 208.76 0.2L208.76 0.2Q204.56 0.2 201.76-1.9L201.76-1.9Q197.91-4.75 197.91-11.4 197.91-18.05 201.39-21.63 204.86-25.2 209.81-25.2 214.76-25.2 217.26-22L217.26-22Q219.16-19.45 219.16-15.25L219.16-15.25Q219.16-14.25 219.06-13.15L219.06-13.15 201.21-13.15Q201.16-12.75 201.16-12.3L201.16-12.3ZM210.01-22.1L210.01-22.1Q206.91-22.1 204.71-20.23 202.51-18.35 201.66-15.4L201.66-15.4 216.21-15.4Q215.96-20.95 211.91-21.85L211.91-21.85Q211.01-22.1 210.01-22.1Z" fill="#3731f3" data-fill-palette-color="primary"></path><path d="M250.737-25L253.987-25.25 253.987 0 250.737 0 250.737-25ZM252.237-31.7Q251.237-31.7 250.717-32.35 250.187-33 250.187-34 250.187-35 250.767-35.63 251.337-36.25 252.337-36.25 253.337-36.25 253.967-35.63 254.587-35 254.587-33.9 254.587-32.8 253.917-32.25 253.237-31.7 252.237-31.7ZM275.697-25.25L275.697-22.25Q279.447-25 282.797-25.15L282.797-25.15Q285.847-25.15 287.497-24.4 289.147-23.65 290.227-22.28 291.297-20.9 291.297-18.4L291.297-18.4 291.297 0 288.047 0 288.047-17.55Q288.047-19.4 287.247-20.4L287.247-20.4Q285.647-22.25 282.347-22.25L282.347-22.25Q279.197-22.1 275.697-20.2L275.697-20.2 275.697 0 272.447 0 272.447-25 275.697-25.25Z" fill="#222222" data-fill-palette-color="secondary"></path><path d="M341.025-35L340.775-32 326.225-32 326.225-18.85 339.725-18.85 339.475-15.85 326.225-15.85 326.225 0 322.825 0 322.825-35 341.025-35ZM358.935-25L362.185-25.25 362.185 0 358.935 0 358.935-25ZM360.435-31.7Q359.435-31.7 358.915-32.35 358.385-33 358.385-34 358.385-35 358.965-35.63 359.535-36.25 360.535-36.25 361.535-36.25 362.165-35.63 362.785-35 362.785-33.9 362.785-32.8 362.115-32.25 361.435-31.7 360.435-31.7ZM391.495-3.6L392.095-0.9Q391.195 0 388.845 0L388.845 0Q385.545 0 384.395-1.7L384.395-1.7Q382.445-3.55 382.445-6.7L382.445-6.7 382.445-22.1 379.645-22.1 380.095-25 382.445-25 382.445-29.95 385.695-30.25 385.695-25 391.495-25 391.495-22.1 385.695-22.1 385.695-5.9Q385.695-3 388.695-3L388.695-3Q389.995-3 391.495-3.6L391.495-3.6ZM412.355-25.25L412.355-22.25Q416.105-25 419.455-25.15L419.455-25.15Q422.505-25.15 424.155-24.4 425.805-23.65 426.885-22.28 427.955-20.9 427.955-18.4L427.955-18.4 427.955 0 424.705 0 424.705-17.55Q424.705-19.4 423.905-20.4L423.905-20.4Q422.305-22.25 419.005-22.25L419.005-22.25Q415.855-22.1 412.355-20.2L412.355-20.2 412.355 0 409.105 0 409.105-25 412.355-25.25ZM449.315-12.3L449.315-11.5Q449.315-2.7 457.715-2.7L457.715-2.7Q461.265-2.7 464.215-3.65L464.215-3.65Q464.965-3.9 465.265-4.05L465.265-4.05 466.015-1.4Q464.265-0.35 459.665 0.1L459.665 0.1Q458.365 0.2 456.915 0.2L456.915 0.2Q452.715 0.2 449.915-1.9L449.915-1.9Q446.065-4.75 446.065-11.4 446.065-18.05 449.545-21.63 453.015-25.2 457.965-25.2 462.915-25.2 465.415-22L465.415-22Q467.315-19.45 467.315-15.25L467.315-15.25Q467.315-14.25 467.215-13.15L467.215-13.15 449.365-13.15Q449.315-12.75 449.315-12.3L449.315-12.3ZM458.165-22.1L458.165-22.1Q455.065-22.1 452.865-20.23 450.665-18.35 449.815-15.4L449.815-15.4 464.365-15.4Q464.115-20.95 460.065-21.85L460.065-21.85Q459.165-22.1 458.165-22.1ZM498.975-24.5L498.175-21.7Q496.375-22.3 493.275-22.3 490.175-22.3 488.475-21.2 486.775-20.1 486.775-18.48 486.775-16.85 487.775-16.1 488.775-15.35 490.275-14.83 491.775-14.3 493.555-13.8 495.325-13.3 496.825-12.5L496.825-12.5Q500.325-10.7 500.325-7.15 500.325-3.6 497.905-1.7 495.475 0.2 490.825 0.2L490.825 0.2Q488.475 0.2 486.305-0.28 484.125-0.75 482.975-1.6L482.975-1.6 484.075-4.25Q485.225-3.25 488.725-2.8L488.725-2.8Q489.825-2.65 490.975-2.65L490.975-2.65Q493.575-2.65 495.325-3.73 497.075-4.8 497.075-7L497.075-7Q497.075-8.5 496.075-9.35 495.075-10.2 493.575-10.78 492.075-11.35 490.305-11.8 488.525-12.25 487.025-12.98 485.525-13.7 484.525-14.88 483.525-16.05 483.525-18.05L483.525-18.05Q483.525-21.3 486.025-23.25 488.525-25.2 492.725-25.2L492.725-25.2Q493.775-25.2 494.875-25.08 495.975-24.95 496.875-24.85L496.875-24.85 498.975-24.5ZM532.185-24.5L531.385-21.7Q529.585-22.3 526.485-22.3 523.385-22.3 521.685-21.2 519.985-20.1 519.985-18.48 519.985-16.85 520.985-16.1 521.985-15.35 523.485-14.83 524.985-14.3 526.765-13.8 528.535-13.3 530.035-12.5L530.035-12.5Q533.535-10.7 533.535-7.15 533.535-3.6 531.115-1.7 528.685 0.2 524.035 0.2L524.035 0.2Q521.685 0.2 519.515-0.28 517.335-0.75 516.185-1.6L516.185-1.6 517.285-4.25Q518.435-3.25 521.935-2.8L521.935-2.8Q523.035-2.65 524.185-2.65L524.185-2.65Q526.785-2.65 528.535-3.73 530.285-4.8 530.285-7L530.285-7Q530.285-8.5 529.285-9.35 528.285-10.2 526.785-10.78 525.285-11.35 523.515-11.8 521.735-12.25 520.235-12.98 518.735-13.7 517.735-14.88 516.735-16.05 516.735-18.05L516.735-18.05Q516.735-21.3 519.235-23.25 521.735-25.2 525.935-25.2L525.935-25.2Q526.985-25.2 528.085-25.08 529.185-24.95 530.085-24.85L530.085-24.85 532.185-24.5Z" fill="#e500f5" data-fill-palette-color="accent"></path></g></svg></g></svg></g></svg></g></svg></g><g><svg viewBox="0 0 139.85032917891695 118.37215742630065" height="118.37215742630065" width="139.85032917891695"><g><svg xmlns="http://www.w3.org/2000/svg" xmlns:xlink="http://www.w3.org/1999/xlink" version="1.1" x="0" y="0" viewBox="1.7000000476837158 8.29999828338623 86.60000610351562 73.30000305175781" enable-background="new 0 0 90 90" xml:space="preserve" height="118.37215742630065" width="139.85032917891695" class="icon-icon-0" data-fill-palette-color="accent" id="icon-0"><path d="M6.9 70.8h22.6l0 0L29.1 72l0 0v-0.1l-0.2 0.7H8.3l0 0H8.2c-2.5 0-4.5 2-4.5 4.5s2 4.5 4.5 4.5 4.5-2 4.5-4.5c0-0.6-0.1-1.1-0.3-1.6h15.5c-0.2 0.5-0.3 1-0.3 1.6 0 2.5 2 4.5 4.5 4.5s4.5-2 4.5-4.5c0-2.4-2-4.5-4.5-4.5H32l8-23.3h2.9c0.5 0.7 1.3 1.3 2.3 1.3 0.4 0 0.8-0.1 1.2-0.3 1.4 1 3.1 1.4 4.9 1.1l0.2 1.1 6.3-1.3v18.7c-0.1 0-0.1 0-0.1 0-3.4 0-6.3 2.9-6.4 6.4v3.9h4.5 13 9.4l0 0 0 0V57.9c0.3 0.2 0.7 0.3 1.1 0.3h6.5c1.4 0 2.5-1.1 2.5-2.5V27.8c0-1.4-1.1-2.5-2.5-2.5H81c0.4-2.3 0.2-4.8-0.6-7.2-1.3-3.6-4-6.6-7.5-8.3-2.1-1-4.3-1.5-6.6-1.5-5.5 0-10.5 3.1-12.9 8-1.7 3.4-1.9 7.3-0.6 11 1.2 3.4 3.5 6.1 6.6 7.9-0.3 0.4-0.5 0.8-0.7 1.2-0.6 0.7-0.8 4.4-0.8 5.6l-8.2 1.6 0.2 0.9-3.7 0.8c-0.3-0.1-0.6-0.2-1-0.2-1 0-1.8 0.4-2.3 1.3H39c-0.1 0-0.1 0-0.2 0-0.6 0.1-1 0.5-1.2 1L36 52l0 0H1.7L2 52.9l4.8 17.3 0.1 0.5V70.8zM59.8 37L59.8 37c0.2-0.4 0.5-0.8 0.7-1.2 2 0.9 4.1 1.4 6.3 1.4l0 0c2.9 0 5.6-0.8 7.9-2.3 1.3 1.7 2.1 3.8 2.1 6v35h-8.1c-0.3-3-2.6-5.5-5.5-5.9V59.1h-1.1v10.8c-0.7 0-1.4 0.1-2.1 0.4-0.3-0.1-0.6-0.2-0.9-0.3V50.9l6.1-1.2c2.4-0.5 4-2.9 3.5-5.3s-2.9-4-5.3-3.5l-4.1 0.8C59.4 40.1 59.6 37.6 59.8 37zM61.7 11.1c1.5 0.7 6.4 3.4 7.7 6.8V18c0.1 0.2 0.1 0.3 0.1 0.3 0.2 0.8 0.3 2.4-0.9 5-2 4-6.1 6.6-10.5 6.6-1 0-1.9-0.1-2.8-0.3-0.5-0.8-1-1.7-1.3-2.7-1.2-3.3-1-6.9 0.5-10 1.4-2.8 3.7-4.9 6.4-6.1C61.4 11 61.7 11.2 61.7 11.1zM78.5 28.7c-0.8 1.8-2.1 3.3-3.6 4.5-0.2 0.2-0.3 0.3-0.5 0.4 0 0.1-0.1 0.1-0.1 0.1-0.1 0.1-0.3 0.2-0.5 0.3-2.1 1.3-4.5 2-7 2-2.1 0-4.1-0.5-6-1.4-0.2-0.1-0.5-0.3-0.7-0.4-1.7-1-3.1-2.2-4.2-3.7 0.7 0.1 1.5 0.2 2.2 0.2 4.7 0 9-2.8 11.1-7 1.3-2.6 1.2-4.5 1-5.5 0 0 0-0.1-0.1-0.3v-0.1c-0.5-1.2-2.1-4.3-8.1-7.2 0 0-0.1 0-0.2-0.1 1.4-0.5 2.9-0.8 4.5-0.8 2.1 0 4.1 0.5 6 1.4 3.2 1.6 5.6 4.3 6.8 7.6C80.3 22 80.1 25.5 78.5 28.7zM78.1 31.8c0.6-0.8 1.2-1.6 1.6-2.5 0.4-0.9 0.8-1.7 1-2.6h5.1c0.6 0 1.1 0.5 1.1 1.1v27.9c0 0.6-0.5 1.1-1.1 1.1h-6.6c-0.6 0-1.1-0.5-1.1-1.1V31.8L78.1 31.8zM76.9 33.1L76.9 33.1l-0.1 2.6c-0.3-0.6-0.6-1.1-1-1.6C76.2 33.8 76.5 33.5 76.9 33.1zM57.2 77.2h6.9l0 0h12.7l0 0v1.7H57.2V77.2zM57.7 75.9h-0.6c0-0.7 0.2-1.3 0.5-1.8 0.3-0.7 0.7-1.2 1.3-1.7 0.3-0.2 0.6-0.4 0.9-0.6 0.5-0.2 1-0.4 1.6-0.5 0.1-0.1 0.3-0.1 0.5-0.1 0.1 0 0.1 0 0.2 0 0.2 0 0.3 0 0.5 0s0.3 0.1 0.5 0.1c2.1 0.4 3.8 2.3 4.1 4.5H64h-0.8-0.5l0 0H62h-3l0 0L57.7 75.9 57.7 75.9zM52.8 77.2h2.9v1.7h-2.9V77.2zM58.3 71.2c-0.2 0.1-0.4 0.3-0.6 0.5-1.1 1.1-1.8 2.5-2 4.1h-3.1c0.4-2.6 2.5-4.6 5.1-4.6C57.7 71.2 58 71.2 58.3 71.2zM51.3 44.7l8-1.6 0 0 0 0 4.5-0.9c1.7-0.3 3.4 0.8 3.7 2.5 0.3 1.7-0.8 3.4-2.5 3.7l-12.5 2.5L51.3 44.7zM45.3 47.1l4.2-0.9 0.9 4.1C48.2 50.3 46.2 49.1 45.3 47.1zM9.7 77.1c0 0.9-0.7 1.6-1.6 1.6S6.5 78 6.5 77.1s0.7-1.6 1.6-1.6l0 0c0 0 0.1 0 0.2 0l0 0C9.2 75.6 9.8 76.3 9.7 77.1zM21.8 69.3l0.2-4.9h5l-0.9 4.9H21.8zM21.7 64.2h-5l-0.3-5.1h5.5L21.7 64.2zM16.5 64.2h-4.9l-0.8-5.1h5.4L16.5 64.2zM16.8 64.4h4.9l-0.2 4.9H17L16.8 64.4zM12.4 69.3l-0.7-4.9h4.8l0.3 4.9H12.4zM6.7 64.4h4.7l0.7 4.9H8L6.7 64.4zM5.2 59.1h5.4l0.8 5.1H6.6L5.2 59.1zM9.6 53.5l0.8 5.1H5l-1.4-5.1H9.6zM16.2 58.6h-5.4L10 53.5h5.9L16.2 58.6zM22.2 53.5L22 58.6h-5.5l-0.3-5.1H22.2zM22.3 59.1H28l-1 5.1h-5L22.3 59.1zM28.9 53.5L28 58.6h-5.8l0.2-5.1H28.9zM33.7 58.6h-5.4l0.9-5.1h6.3L33.7 58.6zM31.9 64.2h-4.5l0.9-5.1h5.3L31.9 64.2zM30.4 77.1c0-0.9 0.7-1.6 1.6-1.6 0.9 0 1.6 0.7 1.6 1.6s-0.7 1.6-1.6 1.6C31.1 78.7 30.4 78 30.4 77.1zM26.4 69.3l0.9-4.9h4.4L30 69.3H26.4zM85.1 31.2c0.4 0 0.7 0.3 0.7 0.7s-0.3 0.7-0.7 0.7H80c-0.4 0-0.7-0.3-0.7-0.7s0.3-0.7 0.7-0.7H85.1zM80 33.3h5.1c0.4 0 0.7 0.3 0.7 0.7s-0.3 0.7-0.7 0.7H80c-0.4 0-0.7-0.3-0.7-0.7S79.6 33.3 80 33.3zM80 35.3h5.1c0.4 0 0.7 0.3 0.7 0.7s-0.3 0.7-0.7 0.7H80c-0.4 0-0.7-0.3-0.7-0.7C79.3 35.7 79.6 35.4 80 35.3z" fill="#e500f5" data-fill-palette-color="accent"></path></svg></g></svg></g></svg></g></svg></g></svg></g></svg></g></svg><rect width="395.52" height="247.2" fill="none" stroke="none" visibility="hidden"></rect></g></svg></g></svg>