<?xml version="1.0" standalone="no"?>
<!DOCTYPE svg PUBLIC "-//W3C//DTD SVG 20010904//EN"
 "http://www.w3.org/TR/2001/REC-SVG-20010904/DTD/svg10.dtd">
<svg version="1.0" xmlns="http://www.w3.org/2000/svg"
 width="2048.000000pt" height="2048.000000pt" viewBox="0 0 2048.000000 2048.000000"
 preserveAspectRatio="xMidYMid meet">

<g transform="translate(0.000000,2048.000000) scale(0.100000,-0.100000)"
fill="#000000" stroke="none">
<path d="M16254 13490 c-42 -17 -94 -105 -94 -159 0 -14 12 -48 25 -76 14 -27
25 -54 25 -60 0 -25 -164 -323 -233 -425 -36 -52 -208 -280 -245 -325 -144
-172 -314 -343 -375 -375 -38 -20 -48 -22 -61 -11 -36 30 -15 144 75 411 32
97 59 188 59 203 0 24 -4 27 -32 26 -18 0 -55 -8 -82 -17 -43 -15 -56 -26 -93
-82 -24 -36 -50 -73 -58 -83 -8 -9 -15 -20 -15 -23 0 -8 -107 -150 -165 -219
-66 -79 -122 -131 -164 -151 -51 -24 -65 -11 -69 64 -3 53 2 72 31 134 42 88
111 169 170 197 53 26 80 26 133 2 31 -14 45 -16 53 -8 19 19 12 33 -24 50
-157 75 -394 -34 -516 -238 -51 -85 -207 -311 -262 -380 -62 -76 -130 -145
-144 -145 -27 0 -9 102 48 275 32 98 37 117 50 193 10 60 10 80 -1 110 -20 56
-36 67 -100 67 -50 -1 -64 -6 -128 -49 -51 -34 -91 -71 -136 -130 -59 -76
-201 -294 -257 -395 -17 -31 -25 -38 -28 -26 -3 17 21 131 38 185 23 67 83
315 102 417 24 131 -12 203 -102 203 -69 0 -133 -33 -206 -105 -68 -68 -208
-276 -325 -485 -42 -74 -88 -155 -102 -180 -14 -25 -65 -123 -113 -219 -81
-159 -88 -170 -91 -137 -2 20 9 75 23 124 25 83 46 144 136 397 65 182 68 221
15 211 -149 -28 -137 -18 -186 -165 -51 -150 -133 -284 -367 -598 -60 -81
-146 -173 -162 -173 -6 0 -15 19 -22 43 -14 53 -2 155 43 352 17 77 33 164 36
193 l4 52 -39 -1 c-21 0 -60 -8 -88 -17 -55 -19 -47 -6 -95 -167 -40 -134
-128 -293 -213 -384 -70 -75 -147 -87 -163 -25 -15 58 4 218 41 354 47 174 53
218 31 226 -20 8 -145 -24 -167 -42 -8 -8 -21 -37 -28 -66 -14 -61 -32 -111
-41 -118 -4 -3 -35 -48 -70 -100 -68 -102 -214 -299 -252 -340 -13 -14 -36
-41 -51 -60 -59 -73 -184 -194 -233 -226 -103 -66 -133 -60 -179 39 -19 40
-46 87 -61 104 -53 64 -170 113 -271 113 -67 0 -68 13 -5 71 169 158 372 293
372 249 0 -19 30 -10 62 18 22 20 29 34 25 47 -14 36 -115 -3 -256 -97 -40
-28 -81 -56 -90 -64 -9 -8 -30 -24 -47 -36 -18 -13 -48 -36 -68 -52 -20 -16
-40 -26 -43 -22 -8 8 37 98 75 147 15 20 42 58 61 85 19 27 71 99 116 159 175
237 434 621 529 785 180 308 238 493 192 604 -25 59 -90 75 -204 51 -141 -29
-283 -161 -417 -386 -24 -41 -141 -276 -179 -361 -19 -42 -104 -261 -116 -298
-5 -14 -27 -77 -50 -140 -44 -122 -117 -340 -169 -505 -41 -128 -52 -152 -103
-217 -51 -64 -100 -109 -221 -202 -94 -72 -257 -179 -264 -173 -3 4 2 45 28
202 5 33 12 115 15 183 7 119 6 124 -16 147 -20 21 -33 25 -79 25 -80 0 -108
-22 -198 -151 -156 -223 -266 -342 -366 -394 -60 -31 -68 -31 -96 -1 -30 32
-38 116 -20 227 7 46 13 111 13 144 1 54 -1 60 -21 63 -12 2 -53 -6 -91 -17
-57 -18 -72 -26 -80 -49 -17 -42 -30 -101 -37 -167 -5 -38 -18 -80 -38 -115
-29 -52 -213 -329 -226 -340 -3 -3 -31 -39 -62 -80 -31 -41 -99 -118 -150
-170 -180 -181 -281 -202 -348 -72 -17 34 -21 59 -21 146 l0 105 43 13 c202
59 375 232 385 387 4 76 -19 120 -73 138 -92 32 -253 -32 -361 -144 -24 -26
-105 -136 -180 -245 -74 -109 -141 -206 -149 -216 -7 -9 -43 -53 -78 -97 -106
-132 -211 -225 -254 -225 -7 0 -20 11 -29 25 -25 39 -13 138 34 281 42 127 44
133 125 304 60 127 68 153 60 192 -9 45 -58 87 -166 143 l-96 50 2 97 c2 90 0
98 -22 122 -31 33 -87 35 -119 6 -23 -22 -52 -82 -52 -108 0 -29 41 -102 76
-134 19 -18 34 -38 34 -45 0 -13 -44 -151 -59 -188 -5 -11 -26 -63 -46 -115
-42 -105 -85 -194 -125 -255 -15 -22 -29 -47 -32 -55 -15 -37 -143 -210 -200
-268 -87 -88 -138 -122 -195 -128 -58 -6 -63 -2 -132 99 -59 85 -85 107 -147
125 -78 22 -171 9 -271 -39 -90 -43 -239 -216 -318 -370 -30 -57 -35 -17 -15
121 39 270 16 220 292 643 103 158 188 292 188 297 0 6 5 10 10 10 6 0 10 4
10 10 0 5 24 47 53 92 211 329 344 633 354 808 5 102 -11 142 -75 178 -86 48
-215 38 -317 -26 -200 -126 -388 -486 -525 -1007 -12 -44 -28 -105 -36 -135
-8 -30 -19 -75 -24 -100 -5 -25 -21 -97 -34 -160 -23 -107 -38 -197 -65 -377
-15 -100 -13 -356 3 -423 27 -112 71 -175 117 -168 19 2 28 17 49 78 44 131
144 292 250 404 64 67 95 86 145 86 47 0 75 -19 126 -88 86 -114 133 -142 235
-142 46 0 115 18 130 33 4 4 14 7 21 7 24 0 156 96 209 152 68 70 110 126 201
267 107 163 185 335 253 559 7 23 17 42 21 42 17 0 67 -51 79 -81 16 -39 5
-87 -44 -192 -109 -232 -143 -319 -167 -429 -26 -120 25 -222 122 -248 77 -21
191 26 284 117 65 64 151 163 206 238 80 109 75 111 75 -33 -1 -118 1 -132 24
-177 35 -68 69 -98 129 -114 193 -49 403 98 710 499 19 25 68 97 108 160 41
63 77 118 82 123 4 4 17 -14 29 -41 29 -64 54 -89 101 -102 154 -41 363 112
592 435 l64 90 3 -57 c3 -60 -25 -271 -59 -442 -10 -55 -20 -101 -22 -102 -3
-2 -302 -185 -337 -205 -74 -43 -288 -193 -371 -260 -92 -74 -206 -185 -266
-259 -15 -19 -35 -43 -43 -52 -8 -9 -24 -34 -35 -55 -10 -21 -27 -49 -36 -63
-33 -50 -79 -214 -79 -281 0 -120 75 -251 169 -298 65 -33 160 -46 232 -32
150 28 267 91 393 212 137 129 243 292 331 505 20 49 43 103 50 119 23 51 92
264 128 395 36 130 45 167 73 288 l17 74 121 81 c158 105 278 197 344 260 48
48 52 49 52 27 0 -14 -6 -49 -14 -77 -20 -77 -28 -146 -17 -162 8 -12 20 -12
86 4 87 20 102 31 111 83 3 20 12 57 19 82 15 53 29 55 110 15 51 -26 59 -34
148 -169 88 -133 154 -147 314 -66 71 36 109 66 206 160 115 110 255 276 362
428 28 39 53 71 58 72 4 0 7 -40 7 -89 0 -133 30 -185 122 -213 81 -24 206 32
315 140 l73 72 0 -68 c0 -104 46 -162 130 -162 57 0 149 50 204 111 56 62 172
214 236 309 68 101 80 109 59 40 -56 -187 -52 -277 16 -308 34 -16 60 -15 93
2 43 22 55 40 158 241 53 105 108 210 122 235 14 25 41 74 60 110 128 235 274
452 361 537 40 39 46 40 62 11 18 -33 5 -142 -36 -306 -72 -290 -87 -435 -52
-499 44 -81 139 -38 194 87 6 14 102 165 164 258 16 24 29 45 29 48 0 7 55 77
118 152 54 62 83 76 100 46 11 -19 -7 -137 -38 -244 -33 -118 -44 -208 -31
-256 48 -176 195 -105 426 208 42 57 81 103 88 103 6 0 14 -14 17 -31 10 -44
18 -54 62 -74 35 -16 46 -16 88 -5 69 18 153 63 207 110 49 43 145 158 203
243 37 54 57 67 45 30 -73 -237 -72 -363 4 -402 36 -19 66 -20 129 -4 127 31
249 151 620 614 75 92 230 348 292 481 14 29 28 53 33 53 15 0 47 -65 47 -96
0 -39 -16 -71 -105 -214 -85 -135 -195 -327 -195 -341 0 -5 -4 -17 -9 -27 -36
-71 -42 -182 -12 -222 25 -32 78 -50 111 -37 14 5 35 13 48 18 49 20 71 32
113 67 64 52 200 194 282 292 39 47 74 87 77 90 22 20 140 170 140 179 0 31
-35 0 -118 -103 -161 -200 -373 -423 -448 -470 -63 -40 -77 -31 -72 44 3 49
16 84 68 188 59 119 161 295 251 435 45 69 49 106 18 156 -25 41 -30 46 -96
95 -29 21 -53 43 -53 49 1 7 9 37 20 67 24 67 25 118 4 148 -16 24 -27 26 -60
12z m20 -36 c33 -13 11 -148 -24 -142 -25 5 -34 71 -15 112 10 20 19 36 20 36
2 0 10 -3 19 -6z m-4941 -306 c36 -19 46 -40 47 -97 1 -157 -192 -526 -504
-966 -39 -55 -76 -107 -83 -115 -6 -8 -72 -95 -145 -194 -81 -108 -134 -172
-136 -162 -7 32 175 551 265 756 8 19 19 44 24 55 177 415 328 658 443 714 48
24 60 25 89 9z m-4975 -1091 c88 -81 26 -299 -210 -737 -23 -41 -49 -87 -59
-102 -11 -14 -19 -29 -19 -31 0 -15 -368 -584 -397 -615 -7 -7 -13 -17 -13
-21 0 -4 -14 -23 -31 -42 -29 -32 -30 -32 -25 -9 21 93 48 210 56 240 5 19 14
55 19 80 30 123 96 353 140 486 127 384 228 587 351 712 74 73 135 86 188 39z
m736 -669 c19 -26 21 -113 4 -124 -18 -12 -68 55 -68 91 0 54 37 72 64 33z
m1126 -318 c11 -7 15 -28 14 -82 -1 -113 -40 -174 -162 -257 -56 -38 -128 -71
-155 -71 -25 0 41 173 104 270 76 118 151 171 199 140z m1175 -527 c-31 -127
-29 -121 -99 -333 -29 -91 -64 -187 -76 -215 -165 -372 -324 -590 -493 -675
-58 -29 -79 -34 -140 -34 -95 -1 -120 7 -173 56 -43 40 -59 66 -82 139 -14 42
-16 168 -3 201 5 13 15 43 22 68 46 156 191 344 373 483 16 12 52 40 80 63
100 79 285 201 433 285 17 10 65 38 105 63 89 54 90 52 53 -101z"/>
<path d="M4480 11705 c-70 -16 -89 -23 -185 -65 -69 -31 -127 -72 -193 -139
-126 -125 -150 -276 -70 -436 49 -98 124 -179 308 -331 260 -215 386 -375 426
-544 51 -214 -69 -503 -311 -745 -170 -170 -308 -248 -595 -336 -64 -20 -297
-17 -370 4 -30 9 -66 19 -80 23 -40 11 -131 72 -183 123 -82 79 -120 151 -146
279 -20 95 -14 162 28 352 39 174 229 428 374 500 88 43 126 52 237 57 142 7
204 -17 305 -117 49 -48 100 -133 124 -209 16 -49 14 -180 -4 -248 -22 -85
-79 -189 -144 -263 -54 -60 -66 -90 -38 -90 14 0 79 66 120 123 38 51 80 132
96 187 7 25 17 58 22 74 13 41 10 173 -4 226 -60 220 -248 360 -482 360 -73 0
-183 -26 -240 -56 -27 -15 -60 -32 -72 -38 -39 -20 -197 -190 -233 -251 -19
-33 -49 -94 -67 -135 -30 -67 -42 -107 -73 -247 -14 -59 -12 -188 4 -253 45
-182 131 -293 289 -373 85 -43 129 -55 258 -72 173 -23 453 20 616 96 24 10
47 19 52 19 15 0 163 81 214 116 26 19 51 34 56 34 5 0 11 3 13 8 2 4 28 26
58 49 68 51 213 200 262 268 53 74 93 151 120 230 34 102 33 279 -1 385 -62
190 -213 384 -431 554 -272 213 -383 430 -306 598 43 92 122 160 246 211 100
41 173 50 245 32 32 -9 66 -21 74 -28 89 -70 120 -146 90 -224 -27 -72 -145
-153 -223 -153 -23 0 -49 -7 -59 -15 -56 -42 105 -34 191 9 56 28 115 90 137
142 22 54 20 145 -5 177 -11 14 -20 29 -20 34 -1 16 -86 71 -143 92 -67 24
-196 27 -287 6z"/>
</g>
</svg>
